<?xml version="1.0" standalone="no"?>
<!DOCTYPE svg PUBLIC "-//W3C//DTD SVG 20010904//EN" "http://www.w3.org/TR/2001/REC-SVG-20010904/DTD/svg10.dtd">
<svg version="1.0" xmlns="http://www.w3.org/2000/svg"
    width="400.000000pt" height="400.000000pt" viewBox="0 0 326.000000 346.000000"
    preserveAspectRatio="xMidYMid meet">
    <g transform="translate(0.000000,346.000000) scale(0.100000,-0.100000)"
        fill="#000000" stroke="none">
        <path
            d="M1530 3444 c-57 -5 -152 -23 -210 -40 -25 -7 -72 -20 -105 -30 -235
-67 -519 -235 -690 -408 -141 -143 -258 -306 -335 -469 -112 -237 -170 -484
-170 -724 0 -349 100 -697 277 -965 97 -145 126 -181 238 -294 193 -195 413
-331 680 -424 286 -98 569 -116 850 -53 179 40 438 145 583 237 119 75 398
331 427 392 49 104 -43 227 -150 200 -14 -4 -44 -26 -68 -50 -23 -24 -78 -80
-122 -126 -162 -167 -348 -280 -585 -354 -154 -48 -268 -66 -416 -66 -375 0
-711 139 -989 409 -68 66 -205 230 -205 246 0 2 -14 24 -30 49 -64 95 -142
291 -182 458 -19 81 -22 121 -23 308 0 185 3 228 22 310 66 291 186 513 383
711 112 113 223 196 335 252 238 119 386 157 630 165 271 8 443 -29 678 -145
152 -75 262 -156 402 -298 84 -85 142 -136 164 -143 40 -14 95 -2 134 28 35
28 45 94 22 144 -23 48 -177 217 -263 288 -222 186 -507 321 -787 374 -77 15
-397 26 -495 18z" />
        <path
            d="M1605 2840 c-153 -17 -227 -40 -383 -117 -221 -110 -402 -304 -502
-537 -58 -134 -79 -237 -86 -406 -9 -215 21 -359 116 -555 59 -121 122 -206
228 -306 146 -140 306 -228 507 -280 115 -30 126 -31 270 -25 186 6 305 35
455 107 130 63 206 116 305 216 114 115 228 284 205 307 -5 5 -75 8 -157 7
-121 -2 -149 -5 -156 -18 -25 -43 -135 -158 -190 -196 -157 -111 -303 -157
-497 -157 -262 1 -538 159 -682 393 -155 252 -170 604 -36 862 66 127 199 270
298 319 30 15 69 35 85 45 17 10 71 29 120 42 77 20 112 24 240 23 143 0 154
-2 248 -34 95 -32 194 -86 247 -135 59 -54 102 -75 153 -75 46 0 54 4 89 40
32 34 38 48 38 84 0 70 -65 143 -214 239 -192 124 -461 184 -701 157z" />
        <path
            d="M1310 2003 c-26 -10 -60 -57 -71 -98 -38 -137 62 -333 213 -417 114
-63 94 -62 968 -65 503 -2 801 0 810 7 11 7 15 27 14 78 -1 89 -25 131 -96
166 l-52 26 -706 0 c-759 0 -760 0 -835 51 -34 23 -87 103 -100 149 -26 92
-78 128 -145 103z" />
    </g>
</svg>