<?xml version="1.0" standalone="no"?>
<!DOCTYPE svg PUBLIC "-//W3C//DTD SVG 20010904//EN"
 "http://www.w3.org/TR/2001/REC-SVG-20010904/DTD/svg10.dtd">
<svg version="1.0" xmlns="http://www.w3.org/2000/svg"
 width="592.000000pt" height="592.000000pt" viewBox="0 0 592.000000 592.000000"
 preserveAspectRatio="xMidYMid meet">
<metadata>
Created by potrace 1.14, written by Peter Selinger 2001-2017
</metadata>
<g transform="translate(0.000000,592.000000) scale(0.100000,-0.100000)"
fill="#000000" stroke="none">
<path d="M2490 5837 c0 -66 -6 -100 -28 -163 -16 -43 -41 -113 -56 -156 -25
-71 -31 -79 -86 -117 -32 -23 -62 -41 -67 -41 -16 0 -51 -44 -58 -72 -7 -28
-12 -23 153 -138 21 -15 21 -16 8 -159 -9 -99 -18 -146 -27 -152 -8 -5 -72
-39 -142 -74 -139 -71 -192 -81 -238 -47 -22 15 -51 17 -332 14 -343 -4 -351
-6 -286 -63 28 -24 30 -29 14 -28 -84 6 -73 -23 35 -96 89 -60 89 -60 83 -95
-3 -19 -7 -37 -9 -38 -6 -7 -81 22 -180 70 -89 42 -111 59 -178 129 -98 104
-106 102 -106 -28 0 -92 -3 -106 -44 -213 -60 -157 -64 -166 -95 -181 -14 -8
-28 -16 -31 -19 -10 -10 -69 -50 -75 -50 -2 0 -16 -10 -30 -22 l-25 -22 0
-190 0 -191 90 -70 90 -70 0 -110 c-1 -69 -5 -118 -13 -133 -14 -24 -30 -34
-189 -117 -104 -53 -109 -55 -187 -55 l-81 0 0 -180 0 -180 76 0 c75 0 78 -1
223 -75 107 -55 151 -83 160 -101 6 -14 11 -73 11 -133 l0 -109 -34 -28 c-18
-16 -59 -48 -90 -72 l-56 -43 0 -194 0 -194 89 -58 c103 -67 131 -104 180
-246 27 -77 31 -102 31 -193 0 -82 3 -104 14 -104 8 0 49 36 92 80 56 57 100
92 149 117 39 20 93 48 120 64 70 39 81 37 88 -12 3 -23 3 -47 0 -55 -2 -7
-38 -36 -79 -64 -78 -54 -93 -80 -46 -80 l27 0 -32 -26 c-18 -14 -33 -34 -33
-45 0 -18 10 -19 258 -19 141 0 280 -3 308 -6 44 -6 55 -3 73 15 16 16 33 21
70 21 40 0 73 -12 189 -69 77 -38 143 -75 147 -81 4 -7 13 -75 19 -152 l12
-139 -81 -56 c-44 -31 -81 -56 -81 -57 -1 -1 -5 -15 -8 -32 -7 -30 -4 -33 87
-95 l94 -64 54 -140 c48 -128 53 -149 57 -237 4 -94 5 -98 26 -98 15 0 44 24
90 74 47 52 94 90 161 131 137 82 150 85 420 85 l231 0 155 161 c85 89 156
168 157 176 2 8 -30 50 -72 93 l-76 78 0 136 0 136 38 23 c20 14 55 33 77 44
22 11 71 37 110 57 62 32 77 36 146 36 l76 0 74 81 c73 79 129 119 168 119 11
0 55 -15 98 -34 l78 -35 48 -88 c89 -164 91 -170 95 -276 3 -84 6 -98 20 -95
22 4 30 38 31 128 1 52 12 115 36 205 56 203 49 191 113 224 143 73 138 69
186 171 25 52 46 94 48 92 2 -2 17 2 33 8 288 111 318 120 391 120 l74 0 0 28
c0 21 -18 45 -75 102 -41 40 -79 87 -86 104 -13 32 -103 228 -120 258 -5 10
-9 53 -9 96 l0 78 -76 74 c-67 66 -104 119 -104 149 0 6 38 11 87 13 l88 3 8
55 c4 30 6 122 5 205 l-3 150 -85 3 c-47 2 -88 6 -93 11 -14 14 28 79 101 155
l72 76 0 75 c0 73 2 80 73 228 63 130 84 165 145 231 46 51 72 88 72 103 0 22
-3 23 -72 23 -66 0 -91 6 -252 67 l-179 67 -43 91 c-41 85 -47 94 -96 121 -29
16 -66 37 -83 47 -16 9 -37 20 -46 23 -11 4 -30 59 -62 178 -39 143 -47 188
-47 259 0 78 -2 87 -19 87 -21 0 -31 -40 -31 -133 0 -51 -7 -71 -67 -188 -64
-123 -71 -132 -115 -155 -39 -20 -62 -24 -130 -24 l-83 0 -86 90 -86 90 -80 0
c-77 0 -83 2 -179 53 -54 30 -118 64 -141 78 l-43 24 0 139 0 138 75 77 c41
43 75 84 75 92 0 8 -38 53 -85 100 -47 46 -115 119 -152 162 l-68 77 -240 0
-241 0 -79 41 c-44 23 -106 54 -137 71 -39 19 -80 54 -124 104 -47 52 -74 74
-91 74 -22 0 -23 -3 -23 -83z m81 -69 c8 -15 5 -18 -16 -18 -22 0 -25 4 -25
38 1 35 1 36 16 17 9 -11 20 -28 25 -37z m-11 -95 c0 -2 -7 -11 -15 -19 -13
-14 -15 -13 -15 10 0 18 4 24 15 20 8 -4 15 -8 15 -11z m55 -33 c3 -5 -1 -10
-10 -10 -9 0 -13 5 -10 10 3 6 8 10 10 10 2 0 7 -4 10 -10z m45 -99 c0 -30
-12 -31 -40 -5 l-25 24 33 0 c25 0 32 -4 32 -19z m130 -18 c0 -34 -1 -36 -16
-21 -13 13 -14 19 -2 37 7 11 14 21 15 21 2 0 3 -17 3 -37z m430 28 c0 -19
-19 -21 -52 -7 l-33 14 43 1 c23 1 42 -3 42 -8z m-370 -36 c0 -8 -4 -17 -10
-20 -6 -4 -10 5 -10 20 0 15 4 24 10 20 6 -3 10 -12 10 -20z m-291 -19 l22
-23 -25 -5 c-23 -5 -26 -2 -26 23 0 35 1 35 29 5z m-81 -37 c-25 -16 -29 -9
-11 22 17 29 18 29 21 8 2 -12 -2 -26 -10 -30z m976 26 c17 -25 16 -25 -4 -13
-11 7 -20 18 -20 25 0 19 6 16 24 -12z m-215 -176 l-1 -102 -55 54 c-30 30
-73 75 -95 102 l-40 47 96 0 96 0 -1 -101z m150 19 c0 -70 -2 -79 -12 -58 -6
14 -24 51 -39 83 l-28 57 40 0 40 0 -1 -82z m-751 -27 l3 -94 -56 54 c-47 46
-55 59 -55 90 0 42 10 48 70 46 l35 -2 3 -94z m105 64 c-9 -19 -17 -34 -18
-32 -1 1 -9 17 -18 35 l-15 32 34 0 34 0 -17 -35z m170 15 c-8 -31 -19 -32
-31 -5 -11 23 -9 25 12 25 19 0 23 -4 19 -20z m581 -15 c-8 -19 -20 -12 -27
15 -4 17 -2 18 14 10 10 -6 16 -17 13 -25z m-643 -111 l-20 -39 0 85 0 85 20
-46 21 -47 -21 -38z m274 -31 l48 -53 -97 0 -96 0 0 102 0 102 48 -49 c27 -28
70 -74 97 -102z m-757 33 l-3 -33 -48 32 -48 32 48 35 48 35 3 -34 c2 -18 2
-48 0 -67z m1251 61 l44 -30 -26 -21 c-15 -12 -40 -30 -57 -39 l-30 -18 0 76
c0 58 3 74 13 69 6 -4 32 -21 56 -37z m-829 -44 l0 -78 -20 43 c-18 40 -18 45
-3 77 9 19 18 35 20 35 2 0 3 -35 3 -77z m655 -15 l-14 -33 0 65 c1 64 1 65
15 33 12 -27 12 -36 -1 -65z m-93 -70 c12 -27 11 -28 -32 -28 l-40 0 1 86 1
87 30 -64 c17 -35 35 -72 40 -81z m-660 78 c-9 -18 -11 -16 -11 19 0 33 1 37
10 21 8 -12 8 -25 1 -40z m247 22 c0 -27 -2 -29 -8 -13 -5 11 -6 26 -4 33 8
21 13 13 12 -20z m-522 -10 c-3 -7 -5 -2 -5 12 0 14 2 19 5 13 2 -7 2 -19 0
-25z m497 -67 c18 -33 13 -41 -26 -41 l-28 0 17 35 c9 19 18 35 20 35 1 0 9
-13 17 -29z m-454 -13 c0 -5 -7 -8 -15 -8 -17 0 -18 2 -9 25 5 13 8 14 15 3 5
-7 9 -16 9 -20z m290 -24 c0 -2 -12 -4 -26 -4 -17 0 -24 4 -20 13 3 6 9 20 12
30 6 15 8 14 20 -9 8 -14 14 -28 14 -30z m747 10 c-3 -3 -12 -4 -20 -2 -11 2
-12 9 -5 28 l10 25 11 -23 c5 -12 8 -25 4 -28z m-941 -1 c-7 -7 -26 7 -26 19
0 6 6 6 15 -2 9 -7 13 -15 11 -17z m953 -120 l-1 -68 -23 50 c-13 28 -24 54
-24 58 -1 6 26 21 47 26 1 1 2 -29 1 -66z m-881 32 c6 -5 -23 -145 -30 -145
-4 0 -8 3 -8 8 0 4 -16 25 -35 47 -42 48 -51 71 -34 91 9 11 23 13 58 8 25 -4
47 -8 49 -9z m612 -97 l0 -101 -43 44 c-23 24 -67 70 -96 102 l-54 57 97 0 96
0 0 -102z m177 35 c12 -35 21 -63 19 -63 -1 0 -26 30 -55 66 l-53 65 34 -3
c31 -3 34 -7 55 -65z m-687 47 c0 -5 -4 -10 -9 -10 -5 0 -13 -10 -17 -22 -7
-22 -7 -22 -15 -3 -13 35 -10 45 16 45 14 0 25 -4 25 -10z m200 -11 c0 -18 -2
-19 -15 -9 -8 7 -15 16 -15 21 0 5 7 9 15 9 9 0 15 -9 15 -21z m-498 -51 c-10
-22 -11 -21 -11 12 -1 26 2 31 11 22 8 -8 8 -17 0 -34z m899 -28 c12 -14 40
-50 63 -80 22 -30 45 -59 51 -63 10 -8 -81 -2 -137 9 l-28 6 0 96 c1 87 2 95
15 77 8 -11 24 -31 36 -45z m-595 -40 l-24 -85 -7 48 c-6 42 -4 52 20 88 14
23 28 39 30 37 2 -2 -6 -42 -19 -88z m164 55 c0 -8 5 -15 11 -17 7 -2 8 -17 3
-43 l-7 -39 -12 41 c-27 90 -28 98 -11 84 9 -8 16 -19 16 -26z m-61 -88 c11
-42 21 -82 21 -87 0 -6 -25 -10 -56 -10 -46 0 -55 3 -50 15 3 9 16 54 28 100
12 47 25 80 29 73 4 -7 16 -48 28 -91z m241 37 l65 -65 -40 7 c-58 10 -73 20
-80 56 -4 18 -9 41 -11 51 -3 9 -4 17 -2 17 2 0 33 -30 68 -66z m-566 -11 c20
-25 36 -50 36 -53 0 -4 -27 -22 -60 -38 l-60 -31 0 45 c0 37 31 124 44 124 2
0 20 -21 40 -47z m457 -62 c-18 -32 -27 -25 -23 15 4 32 6 34 19 21 12 -12 13
-19 4 -36z m-301 14 c0 -8 -4 -15 -10 -15 -5 0 -10 7 -10 15 0 8 5 15 10 15 6
0 10 -7 10 -15z m389 -76 c46 -16 38 -29 -19 -29 -53 0 -57 3 -37 25 15 18 17
18 56 4z m-204 -49 c-8 -13 -55 -13 -75 0 -11 7 -2 10 33 10 30 0 46 -4 42
-10z m382 -16 c-9 -9 -28 6 -21 18 4 6 10 6 17 -1 6 -6 8 -13 4 -17z m138 5
c5 -5 -11 -9 -43 -9 -49 0 -62 7 -45 24 9 9 74 -2 88 -15z m-835 5 c0 -3 -5
-14 -11 -25 -11 -22 -23 -18 -39 12 -10 17 -7 19 20 19 16 0 30 -3 30 -6z
m-216 -104 c-14 -28 -28 -49 -33 -46 -13 8 -65 29 -80 32 -40 8 -26 23 41 42
101 28 99 29 72 -28z m110 24 c3 -8 2 -12 -4 -9 -6 3 -10 10 -10 16 0 14 7 11
14 -7z m-986 -7 c6 -5 12 -12 12 -18 0 -15 -23 -10 -50 11 l-25 20 25 -3 c14
-1 31 -6 38 -10z m412 9 c0 -9 -30 -14 -35 -6 -4 6 3 10 14 10 12 0 21 -2 21
-4z m-140 -21 c0 -11 -8 -15 -27 -12 -39 5 -42 27 -4 27 21 0 31 -5 31 -15z
m898 -14 c-9 -15 -15 -17 -26 -9 -10 9 -11 13 0 19 7 5 19 9 26 9 10 0 10 -4
0 -19z m122 -32 c-7 -11 -14 -18 -17 -15 -3 3 0 12 7 21 18 21 23 19 10 -6z
m1280 -9 c27 -37 22 -37 -38 0 l-47 30 32 0 c24 0 37 -7 53 -30z m-1860 -28
c3 -4 4 -6 1 -5 -2 1 -12 -2 -22 -8 -25 -13 -59 5 -59 31 0 18 2 18 38 4 20
-9 39 -19 42 -22z m-726 6 c23 -32 13 -33 -31 -4 -37 25 -37 26 -11 26 16 0
33 -9 42 -22z m1085 -9 c-22 -14 -33 -10 -19 6 7 8 17 12 22 9 6 -4 5 -10 -3
-15z m161 6 c0 -8 -2 -15 -4 -15 -2 0 -6 7 -10 15 -3 8 -1 15 4 15 6 0 10 -7
10 -15z m1974 -20 c5 -22 4 -26 -4 -15 -5 8 -10 24 -10 34 0 26 6 18 14 -19z
m-2274 15 c0 -5 -5 -10 -11 -10 -5 0 -7 5 -4 10 3 6 8 10 11 10 2 0 4 -4 4
-10z m-1330 -22 c0 -6 7 -20 17 -30 15 -17 15 -18 -10 -18 -24 0 -27 4 -27 36
0 21 4 33 10 29 6 -3 10 -11 10 -17z m1770 18 c0 -2 3 -11 6 -20 4 -11 0 -16
-14 -16 -12 0 -24 5 -27 10 -3 6 -1 10 5 10 6 0 8 5 5 10 -3 6 1 10 9 10 9 0
16 -2 16 -4z m-273 -42 c-3 -3 -12 -4 -19 -1 -8 3 -5 6 6 6 11 1 17 -2 13 -5z
m91 -85 c-19 -12 -61 -11 -53 1 4 6 10 8 15 5 5 -3 11 -1 15 4 3 6 13 7 21 4
13 -5 13 -7 2 -14z m-1588 -30 c0 -5 -4 -9 -10 -9 -5 0 -10 7 -10 16 0 8 5 12
10 9 6 -3 10 -10 10 -16z m166 -4 l59 -24 -62 -1 c-61 0 -63 1 -63 25 0 14 1
25 3 25 2 0 30 -11 63 -25z m1621 9 c-3 -3 -12 -4 -19 -1 -8 3 -5 6 6 6 11 1
17 -2 13 -5z m857 -55 c33 -45 62 -107 53 -116 -5 -4 -117 136 -117 146 0 5
-6 12 -12 14 -7 3 -2 6 12 6 20 1 35 -11 64 -50z m114 20 c-3 -8 -7 -3 -11 10
-4 17 -3 21 5 13 5 -5 8 -16 6 -23z m-289 -43 c1 -5 -8 -1 -19 9 -16 14 -17
20 -8 26 12 8 25 -10 27 -35z m-879 9 c0 -25 -2 -26 -57 -23 -31 2 -58 8 -60
14 -4 13 43 32 85 33 28 1 32 -2 32 -24z m69 4 c-16 -10 -23 -4 -14 10 3 6 11
8 17 5 6 -4 5 -9 -3 -15z m931 -48 l45 -54 -45 7 c-24 4 -46 9 -49 11 -2 3 -6
28 -9 57 -3 33 -1 49 5 43 5 -5 29 -34 53 -64z m-716 43 c9 -24 8 -26 -16 -18
-32 9 -35 14 -18 24 21 13 27 12 34 -6z m549 -34 l42 -39 -27 -1 c-33 0 -109
64 -86 73 24 10 28 7 71 -33z m-1519 14 c8 -22 8 -24 -8 -24 -15 0 -28 24 -19
34 11 10 21 7 27 -10z m2086 -4 c8 -5 11 -10 5 -10 -5 0 -17 5 -25 10 -8 5
-10 10 -5 10 6 0 17 -5 25 -10z m-675 -20 c16 -17 16 -20 2 -20 -9 0 -18 4
-21 8 -3 5 -20 7 -38 5 l-33 -3 30 15 c39 18 39 18 60 -5z m1055 6 c0 -24 -18
-28 -30 -6 -9 17 -8 20 10 20 11 0 20 -6 20 -14z m-3009 -5 c-8 -5 -20 -7 -28
-4 -21 8 -15 13 15 13 20 0 23 -3 13 -9z m2442 -16 c4 -8 2 -17 -3 -20 -6 -4
-10 3 -10 14 0 25 6 27 13 6z m1067 -15 c13 -25 13 -25 -8 -6 -12 10 -19 23
-16 28 7 11 7 11 24 -22z m-1738 9 c-15 -6 -30 -5 -40 1 -13 7 -8 9 23 9 35 0
37 -1 17 -10z m-162 -8 c0 -18 -18 -21 -30 -6 -10 13 -9 15 9 15 11 0 21 -4
21 -9z m1610 -6 c5 3 11 1 15 -4 3 -6 -12 -19 -35 -31 -44 -22 -46 -21 -27 13
15 27 31 39 35 27 2 -6 8 -8 12 -5z m-2076 -10 c18 -14 15 -15 -36 -15 -60 0
-88 7 -88 21 0 15 103 10 124 -6z m1561 5 c3 -6 -1 -7 -9 -4 -18 7 -21 14 -7
14 6 0 13 -4 16 -10z m-1200 -43 l-7 -25 -48 22 -48 21 46 11 c54 13 66 7 57
-29z m1090 22 l50 -19 -68 4 c-72 4 -83 8 -72 25 9 15 32 13 90 -10z m-542
-38 l37 -36 -64 5 c-54 4 -70 10 -96 35 -16 16 -30 32 -30 36 0 4 26 5 58 2
49 -4 63 -11 95 -42z m-1762 25 c10 6 12 -9 2 -19 -10 -10 -34 14 -26 26 5 8
8 7 11 -1 2 -7 8 -10 13 -6z m1509 -2 c0 -8 -4 -12 -10 -9 -5 3 -10 10 -10 16
0 5 5 9 10 9 6 0 10 -7 10 -16z m315 -5 c11 -17 -1 -21 -15 -4 -8 9 -8 15 -2
15 6 0 14 -5 17 -11z m-1601 -31 c-3 -4 -1 -8 4 -8 6 0 13 -7 16 -16 8 -22
-10 -8 -35 27 -21 30 -21 31 -1 18 11 -7 18 -17 16 -21z m215 5 c10 -19 9 -22
-4 -17 -8 4 -15 15 -15 27 0 23 2 22 19 -10z m201 7 c0 -5 3 -17 7 -27 4 -11
-2 -8 -15 9 -26 31 -28 40 -7 32 8 -4 15 -10 15 -14z m458 -5 c23 -10 42 -22
42 -26 0 -4 -21 -11 -46 -15 -41 -6 -48 -4 -74 21 -16 16 -27 31 -25 36 8 12
57 4 103 -16z m357 5 c18 -20 17 -20 -41 -19 l-59 0 40 19 c22 10 40 19 41 19
0 1 9 -8 19 -19z m135 -14 c0 -3 -7 -6 -15 -6 -9 0 -15 9 -15 21 0 18 2 19 15
5 8 -8 15 -17 15 -20z m-700 21 c0 -1 -8 -10 -19 -19 -17 -15 -21 -14 -47 3
l-29 19 48 0 c26 0 47 -1 47 -3z m1146 -24 c9 -16 24 -33 31 -38 10 -8 2 -10
-29 -7 -43 4 -72 21 -89 54 -9 16 -5 18 29 18 32 0 43 -5 58 -27z m-2084 -25
c12 -20 -19 -22 -47 -4 -14 9 -25 21 -25 26 0 12 62 -7 72 -22z m1958 12 c9
-16 8 -20 -5 -20 -8 0 -15 9 -15 20 0 11 2 20 5 20 2 0 9 -9 15 -20z m1089
-99 c0 -42 2 -88 6 -103 10 -38 4 -35 -33 16 -21 28 -32 56 -32 77 0 23 -8 40
-25 55 l-25 22 47 25 c47 24 48 24 56 5 4 -11 7 -55 6 -97z m-699 105 c0 -9
-50 -12 -62 -5 -8 6 1 9 25 9 20 0 37 -2 37 -4z m-1538 -45 c17 -21 17 -21
-17 -21 -33 0 -35 2 -33 29 2 33 18 30 50 -8z m1697 8 l10 -30 -67 2 c-37 1
-76 7 -87 12 -17 10 -10 14 50 28 39 10 73 18 77 18 3 1 11 -13 17 -30z
m-1549 11 c0 -5 -5 -10 -11 -10 -5 0 -7 5 -4 10 3 6 8 10 11 10 2 0 4 -4 4
-10z m80 -5 c10 -12 10 -15 -4 -15 -9 0 -16 7 -16 15 0 8 2 15 4 15 2 0 9 -7
16 -15z m2276 -9 c10 -8 16 -17 13 -20 -3 -4 -17 2 -30 13 -27 23 -13 28 17 7z
m-1536 -88 c80 -84 87 -94 69 -102 -17 -8 -35 5 -122 92 -101 101 -102 102
-69 102 28 0 45 -13 122 -92z m-1527 61 c10 -11 23 -31 29 -45 6 -13 16 -24
21 -24 6 0 8 -3 4 -6 -3 -4 1 -13 9 -21 8 -8 11 -19 8 -25 -6 -9 -84 103 -84
122 0 4 -6 11 -12 13 -7 3 -8 6 -3 6 6 1 19 -8 28 -20z m235 -10 c-3 -8 -7 -3
-11 10 -4 17 -3 21 5 13 5 -5 8 -16 6 -23z m762 -41 l0 -71 -60 58 c-32 33
-57 61 -55 63 6 6 67 20 93 21 21 1 22 -3 22 -71z m300 5 c-1 -62 -2 -66 -15
-48 -8 11 -19 25 -25 32 -5 7 -10 16 -10 22 0 5 -7 11 -15 15 -22 8 -19 26 4
26 11 0 23 5 26 10 3 6 13 10 21 10 11 0 14 -15 14 -67z m337 53 c2 -2 3 -29
1 -61 l-3 -57 -65 68 -65 67 64 -6 c35 -4 66 -9 68 -11z m-2068 -53 c-5 -27
-11 -62 -14 -80 l-6 -32 -81 41 -82 41 90 42 c49 24 92 41 95 39 4 -2 3 -25
-2 -51z m112 40 c13 -16 12 -17 -3 -4 -10 7 -18 15 -18 17 0 8 8 3 21 -13z
m2679 7 c0 -5 -4 -10 -10 -10 -5 0 -10 5 -10 10 0 6 5 10 10 10 6 0 10 -4 10
-10z m-515 -80 c78 -78 79 -80 49 -80 -30 0 -36 5 -144 123 -34 37 -34 37 -9
37 17 0 47 -23 104 -80z m-1441 -1 c31 -57 34 -70 20 -67 -28 5 -95 138 -70
138 7 0 29 -32 50 -71z m501 -11 l80 -81 -45 7 c-38 6 -55 17 -105 67 -57 58
-59 61 -41 75 11 8 22 14 25 14 3 0 42 -37 86 -82z m1003 67 c2 -2 2 -15 0
-30 l-3 -26 -35 36 -35 37 35 -7 c19 -4 36 -9 38 -10z m1078 -57 c26 -40 53
-83 61 -95 l14 -22 -63 23 -63 23 -3 71 c-2 40 -1 72 2 72 3 0 26 -33 52 -72z
m-3327 18 c17 -25 38 -51 46 -59 13 -14 9 -17 -36 -26 -66 -14 -82 -14 -76 2
3 8 8 39 12 70 4 32 11 57 16 57 4 0 22 -20 38 -44z m120 35 c7 -5 12 -14 9
-21 -2 -7 -10 -4 -22 9 -19 21 -12 28 13 12z m100 -68 c-1 -77 -1 -77 -13 -38
-8 28 -9 51 -2 78 6 20 11 37 13 37 2 0 3 -35 2 -77z m76 57 c-3 -4 -1 -10 3
-12 4 -1 22 -24 40 -49 34 -50 34 -49 -24 -81 l-32 -18 -1 91 c-1 62 2 89 9
84 6 -3 8 -10 5 -15z m1118 -21 c-8 -29 -13 -23 -13 14 0 22 3 28 9 18 5 -7 6
-22 4 -32z m161 -36 c38 -50 42 -61 24 -53 -13 6 -31 13 -40 16 -10 4 -18 10
-18 14 0 4 -13 23 -30 41 -27 31 -28 35 -13 47 9 6 20 9 23 5 4 -5 28 -36 54
-70z m254 -75 c-13 -3 -47 -6 -75 -7 l-53 -1 0 82 0 82 75 -74 c70 -70 74 -75
53 -82z m1606 71 c4 -23 5 -43 3 -45 -2 -2 -22 25 -45 61 l-41 65 38 -20 c33
-16 39 -25 45 -61z m-3356 27 c18 -24 32 -48 32 -52 0 -4 -14 12 -32 37 -18
24 -37 47 -43 51 -7 5 -6 8 1 8 6 0 25 -20 42 -44z m722 22 c0 -12 -1 -19 -3
-17 -1 2 -9 12 -16 22 -12 14 -11 17 3 17 10 0 16 -8 16 -22z m100 18 c0 -11
-19 -15 -25 -6 -3 5 1 10 9 10 9 0 16 -2 16 -4z m1594 -37 c32 -23 56 -43 54
-45 -2 -2 -19 -4 -38 -5 -27 -2 -48 7 -90 36 -79 55 -79 55 -29 55 38 0 56 -7
103 -41z m-396 -87 c-63 -5 -68 0 -68 65 l1 58 54 -60 54 -60 -41 -3z m511
109 c0 -4 -4 -14 -7 -24 -7 -17 -8 -17 -28 1 -11 10 -26 22 -34 25 -8 3 4 5
28 5 23 -1 42 -4 41 -7z m154 -33 c-9 -10 -20 -15 -24 -12 -15 9 -10 32 8 43
25 13 36 -9 16 -31z m772 24 c-3 -3 -11 0 -18 7 -9 10 -8 11 6 5 10 -3 15 -9
12 -12z m-4242 -31 c-8 -20 -10 -20 -28 -6 -20 15 -20 15 -1 30 24 19 39 6 29
-24z m1326 -13 c0 -35 -2 -39 -9 -21 -8 19 -3 63 6 63 2 0 4 -19 3 -42z m321
15 c0 -21 -3 -24 -9 -14 -5 8 -7 20 -4 28 8 21 13 15 13 -14z m1439 -57 c-46
-10 -59 -1 -59 47 l0 27 50 -32 49 -33 -40 -9z m1271 7 l63 -47 -109 -22 c-60
-12 -110 -21 -111 -21 0 1 -4 32 -8 70 l-7 67 54 0 c49 0 60 -5 118 -47z m120
23 c0 -37 -14 -39 -55 -6 l-38 30 47 0 c42 0 46 -2 46 -24z m75 -6 c-32 -21
-38 -21 -29 4 3 9 17 16 33 16 l26 0 -30 -20z m-3158 -22 c-3 -8 -6 -5 -6 6
-1 11 2 17 5 13 3 -3 4 -12 1 -19z m463 1 c0 -5 -4 -9 -10 -9 -5 0 -10 7 -10
16 0 8 5 12 10 9 6 -3 10 -10 10 -16z m-1360 -24 c0 -15 -41 -2 -50 16 -11 20
-11 20 19 4 17 -8 31 -18 31 -20z m2899 22 c-2 -1 -11 -8 -20 -15 -14 -10 -18
-10 -23 3 -4 11 1 15 21 15 14 0 24 -1 22 -3z m-103 -18 c3 -6 1 -16 -4 -21
-13 -13 -45 8 -36 23 7 12 31 11 40 -2z m-1016 -69 c22 -29 21 -31 -7 -24 -14
4 -24 17 -28 35 -4 16 -11 31 -16 34 -5 4 -9 12 -9 18 1 7 10 1 20 -13 11 -14
29 -36 40 -50z m927 39 c42 -26 33 -35 -50 -44 -56 -7 -62 -6 -78 16 l-18 24
47 12 c64 15 60 16 99 -8z m-2403 2 c4 -5 -3 -7 -14 -4 -23 6 -26 13 -6 13 8
0 17 -4 20 -9z m683 -13 c-3 -8 -6 -5 -6 6 -1 11 2 17 5 13 3 -3 4 -12 1 -19z
m105 -18 c15 -29 15 -37 5 -48 -15 -15 -50 -5 -44 12 2 6 0 22 -5 34 -19 53
18 54 44 2z m182 -8 c5 -23 6 -46 2 -49 -21 -21 -65 50 -52 83 12 30 41 10 50
-34z m416 18 c12 -23 12 -24 -3 -11 -10 7 -17 20 -17 29 0 18 3 16 20 -18z
m-756 4 c3 -8 2 -12 -4 -9 -6 3 -10 10 -10 16 0 14 7 11 14 -7z m484 2 c15 -8
44 -32 65 -54 36 -37 37 -39 14 -35 -14 3 -46 27 -73 54 -50 51 -52 59 -6 35z
m772 -13 c0 -10 -4 -14 -8 -8 -4 6 -11 13 -16 18 -5 4 -2 7 7 7 10 0 17 -8 17
-17z m235 -13 l29 -30 -66 0 c-49 0 -68 4 -80 18 -34 39 -32 42 30 42 52 0 61
-3 87 -30z m55 20 c0 -5 -2 -10 -4 -10 -3 0 -8 5 -11 10 -3 6 -1 10 4 10 6 0
11 -4 11 -10z m-2390 -9 c0 -5 -9 -7 -20 -4 -11 3 -20 7 -20 9 0 2 9 4 20 4
11 0 20 -4 20 -9z m90 -12 c-34 -7 -50 -4 -50 9 0 4 19 6 43 3 l42 -4 -35 -8z
m616 -35 c-9 -13 -21 -24 -26 -24 -16 0 -11 47 7 65 15 16 17 16 25 0 7 -11 4
-24 -6 -41z m750 41 c12 -30 -2 -35 -25 -11 l-24 26 22 0 c12 0 24 -7 27 -15z
m301 9 c-3 -3 -12 -4 -19 -1 -8 3 -5 6 6 6 11 1 17 -2 13 -5z m287 -23 l27
-28 -75 -7 c-73 -7 -76 -6 -107 21 l-31 28 33 6 c19 4 55 7 80 8 38 1 50 -4
73 -28z m-746 -39 c-20 -8 -58 9 -58 27 0 31 13 33 41 4 14 -15 22 -30 17 -31z
m2092 37 c0 -5 -10 -9 -21 -9 -18 0 -19 2 -9 15 12 15 30 12 30 -6z m-3465 -7
c-3 -3 -11 0 -18 7 -9 10 -8 11 6 5 10 -3 15 -9 12 -12z m2239 3 c3 -8 1 -15
-4 -15 -6 0 -10 7 -10 15 0 8 2 15 4 15 2 0 6 -7 10 -15z m1291 -3 c-3 -3 -11
0 -18 7 -9 10 -8 11 6 5 10 -3 15 -9 12 -12z m363 -99 c-22 -65 -44 -122 -48
-126 -4 -5 -19 11 -33 35 -14 24 -41 68 -61 98 -20 30 -34 56 -31 58 3 3 181
47 207 51 4 1 -11 -52 -34 -116z m-3647 83 c-11 -13 -92 -46 -113 -46 -4 0 -8
6 -8 14 0 14 15 19 85 32 16 3 32 7 34 10 11 11 12 3 2 -10z m2799 4 c0 -11
-14 -11 -50 0 -22 7 -21 8 13 9 20 1 37 -3 37 -9z m-1114 -27 c-7 -7 -26 7
-26 19 0 6 6 6 15 -2 9 -7 13 -15 11 -17z m834 0 c0 -16 -3 -58 -6 -95 -8 -77
-5 -78 -92 34 l-53 67 38 6 c21 4 45 8 53 10 48 10 60 5 60 -22z m-3286 -26
c9 -53 1 -58 -20 -13 -10 20 -21 36 -26 36 -4 0 -8 4 -8 9 0 5 11 9 24 9 20 0
25 -7 30 -41z m1106 28 c-7 -8 -17 -15 -23 -15 -6 0 -2 7 9 15 25 19 30 19 14
0z m-262 -52 c-40 -12 -86 -25 -102 -29 -28 -6 -29 -5 -14 10 9 9 21 16 26 16
6 0 12 4 14 9 2 5 30 18 63 30 56 19 61 19 73 3 11 -15 5 -19 -60 -39z m335
11 c-57 -45 -73 -35 -26 15 23 25 29 27 36 15 6 -11 3 -20 -10 -30z m2232 36
c3 -5 1 -10 -4 -10 -6 0 -11 5 -11 10 0 6 2 10 4 10 3 0 8 -4 11 -10z m-2899
-15 c19 -14 19 -14 -2 -15 -12 0 -27 7 -34 15 -17 20 9 21 36 0z m2656 -86
c67 -86 75 -99 55 -98 -14 0 -35 17 -58 47 -20 26 -55 71 -78 100 -40 49 -41
52 -19 51 17 0 43 -25 100 -100z m702 79 c3 -13 8 -50 11 -83 l7 -60 -44 44
c-35 35 -45 51 -47 82 -2 38 -1 39 33 39 29 0 37 -4 40 -22z m231 2 c-10 -11
-19 -19 -19 -18 -1 2 -8 11 -15 21 -12 15 -10 17 19 17 32 0 33 0 15 -20z
m-1407 -59 l3 -63 -26 21 c-40 31 -105 90 -105 95 0 5 95 13 115 11 6 -1 11
-30 13 -64z m202 -16 c82 -83 84 -85 54 -85 -30 0 -41 10 -154 133 -34 37 -34
37 -9 37 17 0 48 -24 109 -85z m100 25 c0 -33 -1 -60 -3 -60 -1 0 -29 27 -62
60 l-59 60 62 0 62 0 0 -60z m-1543 33 c4 -10 10 -20 14 -23 12 -9 39 -77 33
-83 -9 -9 -34 4 -34 18 0 7 -7 18 -15 25 -12 10 -45 66 -45 77 0 12 42 0 47
-14z m-423 1 c13 -5 14 -9 5 -20 -9 -11 -15 -11 -25 -3 -8 6 -11 15 -8 20 6
11 8 11 28 3z m306 -66 c0 -67 -1 -71 -17 -56 -9 10 -16 30 -16 45 1 29 19 83
28 83 3 0 5 -32 5 -72z m674 2 l59 -60 -40 0 c-36 0 -46 6 -104 67 l-64 66 45
-7 c37 -6 55 -17 104 -66z m517 43 c16 -16 54 -48 84 -73 l56 -45 -31 -3 c-33
-3 -61 14 -129 77 -18 17 -37 31 -41 31 -4 0 -13 6 -19 14 -12 14 -9 16 42 25
5 0 22 -11 38 -26z m1043 5 c10 -38 7 -40 -24 -16 -27 20 -29 23 -13 30 28 10
30 10 37 -14z m-237 -10 c-3 -8 -6 -5 -6 6 -1 11 2 17 5 13 3 -3 4 -12 1 -19z
m-1270 -3 c9 -25 -2 -27 -22 -5 -17 18 -17 20 -1 20 9 0 19 -7 23 -15z m193
-11 c0 -27 -14 -25 -30 7 -9 16 -7 19 10 19 15 0 20 -7 20 -26z m1222 6 c7
-11 18 -20 23 -20 6 0 26 -16 45 -35 l34 -35 -32 10 c-18 5 -35 9 -38 9 -3 0
-27 20 -54 45 l-49 46 29 0 c19 0 34 -7 42 -20z m-1572 -69 c0 -3 -21 -5 -46
-3 -35 3 -44 7 -40 19 3 8 6 26 6 39 0 24 1 24 40 -12 22 -21 40 -40 40 -43z
m908 -39 c-63 -5 -68 0 -68 65 l0 58 54 -60 54 -60 -40 -3z m-2233 97 c11 -17
-1 -21 -15 -4 -8 9 -8 15 -2 15 6 0 14 -5 17 -11z m340 -31 c-4 -24 -9 -46
-11 -50 -5 -8 -114 43 -114 53 0 6 95 35 123 38 5 1 6 -18 2 -41z m287 7 c-3
-29 -7 -33 -18 -24 -19 16 -18 36 4 48 9 6 17 11 17 11 1 0 -1 -16 -3 -35z
m498 20 c0 -1 -7 -8 -15 -15 -13 -10 -15 -9 -15 8 0 15 5 20 15 16 8 -4 15 -7
15 -9z m1421 -87 c11 -20 2 -22 -50 -12 -30 6 -31 8 -31 58 l1 51 35 -40 c19
-22 39 -48 45 -57z m1056 48 c5 -38 -9 -48 -25 -19 -6 11 -6 25 1 40 13 29 18
24 24 -21z m133 -91 c0 -3 -17 -5 -39 -5 l-38 0 -7 53 c-10 91 -8 92 39 24 25
-37 45 -69 45 -72z m-358 81 c10 -11 18 -24 18 -29 0 -4 7 -15 15 -23 23 -23
18 -34 -14 -34 -37 0 -37 1 -44 75 -4 33 -4 53 0 45 3 -8 14 -23 25 -34z
m-3812 -1 c0 -5 -5 -3 -10 5 -5 8 -10 20 -10 25 0 6 5 3 10 -5 5 -8 10 -19 10
-25z m2343 -43 c-19 -2 -36 -2 -38 0 -2 2 -7 21 -11 42 l-7 40 46 -40 45 -39
-35 -3z m942 40 c-6 -7 -35 18 -35 31 0 5 9 2 20 -8 11 -10 18 -20 15 -23z
m614 -1 c-1 -13 -2 -13 -6 2 -2 9 -9 17 -14 17 -5 0 -9 5 -9 11 0 8 5 8 15 -1
8 -7 14 -20 14 -29z m-2619 -13 c0 -5 -7 -8 -15 -8 -10 0 -15 10 -15 27 0 26
1 26 15 7 8 -10 15 -22 15 -26z m769 12 c6 0 11 -4 11 -9 0 -5 8 -12 18 -14
11 -3 9 -5 -8 -6 -19 -1 -30 7 -44 32 -9 17 -11 24 -3 15 8 -10 19 -18 26 -18z
m-449 10 c0 -5 -7 -10 -16 -10 -8 0 -12 5 -9 10 3 6 10 10 16 10 5 0 9 -4 9
-10z m-985 -20 l40 -19 -49 5 c-52 5 -66 10 -66 25 0 15 32 10 75 -11z m389
-28 c-14 -2 -32 2 -41 9 -13 12 -13 14 3 26 14 10 21 9 40 -10 l23 -22 -25 -3z
m1211 18 c3 -5 1 -10 -4 -10 -6 0 -11 5 -11 10 0 6 2 10 4 10 3 0 8 -4 11 -10z
m-595 -46 l0 -36 -35 33 c-19 19 -35 35 -35 36 0 2 16 3 35 3 33 0 35 -2 35
-36z m1686 15 c3 -5 -11 -9 -30 -9 -32 0 -52 11 -41 22 8 7 65 -3 71 -13z
m-1444 -49 l48 -47 -53 5 c-44 4 -58 10 -94 46 -24 22 -43 44 -43 48 0 4 21 5
48 2 39 -5 55 -14 94 -54z m1818 22 c-7 -3 -16 2 -21 9 -16 25 -9 32 12 13 13
-12 16 -20 9 -22z m320 0 c-27 -4 -34 2 -26 24 6 15 8 15 27 -2 l21 -19 -22
-3z m-2667 -14 c9 -18 15 -33 14 -34 -1 -1 -14 -4 -28 -7 -23 -6 -28 -2 -41
31 l-15 38 27 2 c22 2 31 -4 43 -30z m212 2 l29 -30 -27 0 c-26 0 -61 35 -51
52 9 14 19 9 49 -22z m386 3 c11 -29 8 -29 -22 3 -21 23 -22 26 -5 23 10 -2
22 -14 27 -26z m-1195 7 c8 0 14 -9 14 -20 0 -26 -6 -25 -55 6 l-40 26 34 -6
c18 -3 40 -6 47 -6z m314 -17 c0 -14 -1 -24 -3 -22 -1 2 -11 14 -21 27 -19 22
-19 22 2 22 17 0 22 -6 22 -27z m107 -3 c15 -30 1 -50 -33 -50 -21 0 -24 5
-24 41 0 36 2 40 22 37 12 -2 28 -14 35 -28z m1071 18 c12 -12 17 -58 6 -58
-7 0 -29 25 -45 53 -8 14 -6 17 9 17 10 0 23 -5 30 -12z m194 3 c13 -5 37 -21
53 -35 l30 -25 -65 -1 c-62 0 -66 1 -93 35 l-28 35 40 0 c22 0 50 -4 63 -9z
m-1786 -39 c-5 -4 -66 26 -66 33 0 3 16 -3 35 -12 19 -9 33 -18 31 -21z m227
24 c7 -18 -24 -46 -51 -46 -22 0 -27 15 -16 44 8 20 60 21 67 2z m855 -34
c-18 -8 -38 8 -38 30 l0 23 24 -25 c12 -14 19 -27 14 -28z m832 28 c0 -11 -2
-20 -3 -20 -2 0 -12 9 -22 20 -18 19 -17 20 3 20 15 0 22 -6 22 -20z m235 -10
l29 -30 -65 0 c-59 0 -68 3 -94 30 l-29 30 65 0 c59 0 68 -3 94 -30z m65 14
c0 -14 -3 -14 -15 -4 -8 7 -15 14 -15 16 0 2 7 4 15 4 8 0 15 -7 15 -16z m181
-6 c8 -7 25 -25 38 -40 l23 -26 -44 5 c-31 5 -52 16 -76 40 l-34 33 39 0 c22
0 46 -6 54 -12z m364 2 c4 -6 -11 -7 -42 -3 -63 8 -67 13 -10 13 25 0 49 -4
52 -10z m-280 -10 c3 -5 2 -10 -4 -10 -5 0 -13 5 -16 10 -3 6 -2 10 4 10 5 0
13 -4 16 -10z m-2759 -31 c16 -18 16 -19 0 -19 -19 0 -66 28 -66 40 0 13 49
-2 66 -21z m1664 11 c9 -16 8 -20 -5 -20 -8 0 -15 9 -15 20 0 11 2 20 5 20 2
0 9 -9 15 -20z m590 5 c10 -12 10 -15 -4 -15 -9 0 -16 7 -16 15 0 8 2 15 4 15
2 0 9 -7 16 -15z m309 -7 c12 -15 11 -18 -3 -18 -10 0 -16 8 -16 22 0 12 1 19
3 17 1 -2 9 -12 16 -21z m376 -8 c13 -6 15 -9 5 -9 -8 0 -22 4 -30 9 -18 12
-2 12 25 0z m905 -27 l-1 -38 -26 29 c-24 28 -24 30 -7 37 32 13 34 10 34 -28z
m-451 -75 l0 -103 -20 43 c-10 24 -21 53 -23 65 -2 12 -9 35 -15 50 -16 42
-14 47 24 47 l35 0 -1 -102z m151 15 l-1 -88 -24 50 c-14 28 -30 64 -37 80 -6
17 -13 33 -16 38 -2 4 15 7 37 7 l41 0 0 -87z m122 46 l-16 -41 -17 34 c-25
45 -24 48 15 48 l34 0 -16 -41z m-3393 -46 c53 -69 64 -93 43 -93 -4 0 -18 18
-32 40 -14 22 -28 40 -32 40 -5 0 -8 7 -8 15 0 8 -4 15 -10 15 -5 0 -10 7 -10
15 0 8 -4 15 -9 15 -5 0 -11 7 -15 15 -13 35 17 10 73 -62z m95 47 c5 -5 5
-26 0 -50 l-9 -40 -44 56 -43 57 43 -7 c24 -4 48 -11 53 -16z m839 -64 c37
-47 67 -87 67 -90 0 -9 -43 -7 -55 2 -14 10 -135 159 -135 166 0 3 13 6 28 6
23 0 40 -15 95 -84z m51 68 c3 -9 6 -28 6 -42 l-1 -27 -29 35 c-16 19 -30 38
-30 43 0 14 48 7 54 -9z m-249 -6 c2 -7 1 -28 -3 -46 l-7 -34 -22 46 -23 46
25 0 c14 0 28 -6 30 -12z m485 -73 l85 -85 -40 0 c-37 0 -47 7 -124 85 l-84
85 39 0 c36 0 46 -7 124 -85z m2324 -13 c-5 -4 -31 -22 -57 -40 l-47 -33 6 63
c10 119 8 117 62 64 27 -28 42 -50 36 -54z m-3838 17 c25 -33 44 -62 41 -65
-2 -3 -12 8 -22 23 -10 15 -23 33 -29 40 -6 7 -15 18 -21 25 -5 7 -17 22 -25
33 -8 10 -10 16 -3 11 7 -4 33 -34 59 -67z m458 56 c-4 -8 -8 -15 -10 -15 -2
0 -4 7 -4 15 0 8 4 15 10 15 5 0 7 -7 4 -15z m210 -65 c36 -70 44 -96 27 -86
-9 6 -81 150 -81 161 0 18 21 -13 54 -75z m36 53 c0 -22 -2 -25 -10 -13 -13
20 -13 40 0 40 6 0 10 -12 10 -27z m270 -57 c32 -62 37 -77 23 -74 -10 2 -23
14 -30 28 -37 76 -52 114 -47 122 8 13 9 11 54 -76z m627 70 c2 -2 3 -23 1
-45 l-3 -42 -50 52 -50 52 49 -7 c27 -3 51 -8 53 -10z m477 -62 c32 -41 56
-77 53 -80 -20 -20 -137 100 -137 140 0 32 26 14 84 -60z m125 39 c0 -21 -3
-55 -7 -76 l-7 -38 -45 58 c-81 102 -80 93 -6 93 l66 0 -1 -37z m209 -46 c45
-46 79 -86 76 -90 -22 -22 -58 6 -179 141 l-29 32 25 0 c17 0 48 -24 107 -83z
m102 23 c0 -33 -1 -60 -3 -60 -1 0 -29 27 -62 60 l-59 60 62 0 62 0 0 -60z
m-2650 -20 c0 -38 -3 -70 -7 -70 -5 0 -26 16 -48 35 l-40 34 40 35 c22 20 43
35 48 36 4 0 7 -31 7 -70z m929 49 c-9 -17 -13 -19 -20 -8 -14 22 -11 29 11
29 18 0 19 -3 9 -21z m61 -54 c0 -79 -10 -93 -32 -47 -12 24 -11 33 6 75 11
26 21 47 23 47 2 0 3 -34 3 -75z m908 45 c30 -39 74 -138 63 -145 -5 -2 -35
28 -67 67 -93 114 -90 108 -52 107 24 0 39 -8 56 -29z m70 17 c6 -7 16 -26 22
-41 9 -25 9 -27 -4 -16 -19 15 -47 70 -36 70 4 0 12 -6 18 -13z m870 -50 c59
-59 67 -77 35 -77 -14 0 -61 43 -113 103 -32 37 -32 37 -8 37 16 0 44 -21 86
-63z m352 48 c-7 -8 -17 -15 -22 -15 -11 0 14 29 26 30 5 0 3 -7 -4 -15z
m-277 -15 c5 -4 7 -18 5 -30 -3 -20 -5 -19 -38 15 l-35 36 30 -7 c17 -3 34
-10 38 -14z m172 11 c10 -17 -33 -33 -55 -21 -11 6 -20 15 -20 20 0 13 67 13
75 1z m676 -113 l-20 -43 1 85 0 85 19 -42 c19 -41 19 -42 0 -85z m-3567 96
c9 -25 2 -26 -17 -4 -13 16 -14 20 -3 20 8 0 17 -7 20 -16z m189 -51 l46 -62
-32 -10 c-18 -5 -40 -12 -49 -16 -16 -6 -18 1 -18 76 0 45 1 80 3 78 2 -2 24
-32 50 -66z m369 -17 c19 -42 25 -62 17 -67 -14 -8 -110 -22 -116 -16 -2 3 11
41 29 86 18 44 35 75 37 69 2 -7 17 -40 33 -72z m522 15 l47 -61 -62 0 -61 0
6 31 c3 17 6 47 6 66 0 42 4 40 64 -36z m764 44 c-3 -3 -9 2 -12 12 -6 14 -5
15 5 6 7 -7 10 -15 7 -18z m-1950 -43 l41 -59 -44 -10 -45 -10 0 68 c0 38 2
69 4 69 2 0 22 -26 44 -58z m523 -6 c-24 -59 -41 -66 -27 -12 5 20 42 76 51
76 1 0 -9 -29 -24 -64z m1890 -78 c-9 -4 -41 -7 -73 -7 l-56 -1 5 63 c7 98 8
98 77 22 52 -57 61 -71 47 -77z m-2774 100 c-3 -7 -5 -2 -5 12 0 14 2 19 5 13
2 -7 2 -19 0 -25z m3070 -74 c-1 -1 -23 -4 -49 -6 l-48 -6 0 62 1 61 48 -55
c27 -30 49 -56 48 -56z m868 -62 c-2 -2 -18 1 -36 6 l-34 8 -2 80 -3 79 39
-85 c21 -47 37 -86 36 -88z m-2116 60 c-22 -2 -43 -1 -45 1 -2 2 -7 26 -10 53
l-7 49 52 -50 52 -50 -42 -3z m1671 76 c0 -18 -2 -20 -9 -8 -6 8 -7 18 -5 22
9 14 14 9 14 -14z m-224 1 c3 -6 -1 -18 -10 -27 -15 -15 -16 -14 -16 11 0 27
13 36 26 16z m-1147 -48 c29 -34 36 -48 24 -46 -76 15 -73 13 -73 55 0 22 2
40 4 40 2 0 23 -22 45 -49z m1503 -3 c-7 -7 -10 -5 -7 8 5 29 6 30 12 16 3 -8
1 -18 -5 -24z m-178 -11 c-21 -12 -30 -1 -14 18 10 13 15 13 21 3 5 -8 2 -16
-7 -21z m-114 17 c0 -16 -23 -44 -35 -44 -8 0 -15 -6 -15 -12 0 -7 -5 -5 -11
5 -6 10 -9 20 -7 21 40 31 68 43 68 30z m-1996 -19 c3 -8 1 -15 -4 -15 -6 0
-10 7 -10 15 0 8 2 15 4 15 2 0 6 -7 10 -15z m2746 -49 c-14 -14 -24 0 -16 21
6 15 8 15 16 3 6 -9 5 -19 0 -24z m-1621 -20 c26 -28 19 -32 -26 -15 -32 12
-43 26 -36 45 6 17 29 6 62 -30z m921 34 c-8 -5 -19 -10 -25 -10 -5 0 -3 5 5
10 8 5 20 10 25 10 6 0 3 -5 -5 -10z m-200 -10 c0 -5 -2 -10 -4 -10 -3 0 -8 5
-11 10 -3 6 -1 10 4 10 6 0 11 -4 11 -10z m-2455 -10 c3 -6 -4 -10 -17 -10
-18 0 -20 2 -8 10 19 12 18 12 25 0z m2407 -20 l33 -29 -25 -1 c-14 0 -48 -3
-77 -6 -50 -6 -52 -6 -67 24 l-16 31 48 4 c26 2 53 4 59 5 7 1 27 -11 45 -28z
m-1926 12 c6 -4 16 -16 22 -28 14 -26 -1 -44 -35 -44 -20 0 -23 5 -23 40 0 39
11 49 36 32z m170 -27 c16 -35 13 -58 -6 -39 -15 15 -30 74 -20 74 5 0 17 -16
26 -35z m277 1 c15 -19 27 -37 27 -40 0 -4 -24 -6 -53 -6 -49 0 -56 3 -92 40
l-39 40 64 0 c62 0 66 -2 93 -34z m51 18 c5 -14 4 -15 -9 -4 -17 14 -19 20 -6
20 5 0 12 -7 15 -16z m241 -24 l39 -40 -54 0 c-47 0 -58 4 -87 32 -18 18 -33
36 -33 40 0 4 22 8 48 8 43 0 52 -4 87 -40z m65 20 c0 -11 -2 -20 -3 -20 -2 0
-12 9 -22 20 -18 19 -17 20 3 20 15 0 22 -6 22 -20z m1420 10 c0 -5 -8 -10
-17 -10 -15 0 -16 2 -3 10 19 12 20 12 20 0z m-1260 -10 c20 0 47 -24 82 -72
l19 -28 -26 0 c-24 0 -76 42 -115 94 -14 18 -13 19 3 13 10 -4 27 -7 37 -7z
m420 -33 c0 -22 -1 -22 -20 3 -25 32 -25 43 0 30 11 -6 20 -21 20 -33z m325
32 c11 -17 -1 -21 -15 -4 -8 9 -8 15 -2 15 6 0 14 -5 17 -11z m-1828 -28 c13
-35 11 -36 -70 -46 -51 -7 -59 -5 -87 18 l-30 26 58 11 c31 6 62 13 67 15 31
11 51 3 62 -24z m1778 -1 l29 -30 -25 0 c-13 0 -47 -3 -74 -6 -46 -6 -54 -3
-85 22 l-34 29 39 6 c93 14 120 11 150 -21z m-748 -31 c11 -13 9 -15 -17 -11
-26 4 -30 9 -30 35 0 30 0 30 18 11 9 -10 23 -26 29 -35z m-622 21 c18 -19 17
-20 -3 -20 -15 0 -22 6 -22 20 0 11 2 20 3 20 2 0 12 -9 22 -20z m300 0 c18
-19 17 -20 -3 -20 -15 0 -22 6 -22 20 0 11 2 20 3 20 2 0 12 -9 22 -20z
m-1126 7 c-2 -2 -23 -11 -45 -20 -41 -15 -42 -15 -37 4 4 15 14 19 46 19 22 0
38 -2 36 -3z m-238 -29 c-4 -11 -10 -19 -14 -19 -4 1 -11 1 -16 1 -5 0 -12 7
-15 16 -3 8 -2 12 3 9 5 -3 12 -2 15 3 3 5 12 9 20 9 10 0 12 -6 7 -19z m2239
-3 c10 -12 10 -15 -4 -15 -9 0 -16 7 -16 15 0 8 2 15 4 15 2 0 9 -7 16 -15z
m-2647 -16 c-4 -15 -8 -17 -14 -8 -8 14 -3 29 11 29 4 0 6 -9 3 -21z m2414
-21 c-14 -9 -67 -11 -67 -2 0 3 5 14 10 24 10 18 12 18 39 2 20 -11 26 -19 18
-24z m1072 -44 c1 -20 -10 -44 -31 -72 -17 -23 -33 -40 -35 -39 -1 2 10 47 25
101 28 100 37 102 41 10z m-362 64 c-2 -7 -15 -41 -27 -76 l-23 -64 -34 67
c-18 36 -33 68 -33 70 0 5 44 12 89 14 23 1 32 -3 28 -11z m271 -60 c-11 -40
-21 -74 -22 -75 -1 -2 -11 21 -21 49 l-18 51 29 24 c49 39 55 30 32 -49z
m-2893 52 c4 -6 -6 -10 -22 -10 -22 0 -25 2 -13 10 19 12 27 12 35 0z m365 0
c0 -5 -4 -10 -10 -10 -5 0 -10 5 -10 10 0 6 5 10 10 10 6 0 10 -4 10 -10z
m-955 -87 c-4 -49 -10 -92 -15 -96 -4 -5 -54 15 -111 44 l-104 52 115 43 c63
23 117 43 119 43 2 1 0 -38 -4 -86z m134 10 c0 -68 -2 -74 -11 -48 -6 17 -14
35 -18 40 -7 9 16 85 26 85 2 0 4 -35 3 -77z m728 60 c4 -12 -45 -24 -52 -12
-6 9 26 30 39 26 6 -2 11 -8 13 -14z m2121 -58 l-3 -57 -47 42 c-62 54 -63 78
-5 82 23 2 46 0 50 -3 4 -3 7 -32 5 -64z m106 -6 c21 -44 35 -83 32 -86 -3 -3
-22 30 -42 73 -20 43 -39 82 -41 87 -2 4 0 7 5 7 5 0 26 -36 46 -81z m742 73
c6 -4 14 -29 18 -57 l7 -50 -46 49 c-36 37 -44 51 -33 57 16 11 39 11 54 1z
m-2656 -59 l0 -56 -22 20 c-13 11 -36 31 -52 46 -34 30 -25 36 62 46 8 1 12
-16 12 -56z m89 36 c-9 -17 -13 -19 -19 -8 -11 16 -4 29 16 29 12 0 13 -4 3
-21z m61 -54 c0 -79 -10 -93 -32 -47 -12 24 -11 33 6 75 11 26 21 47 23 47 2
0 3 -34 3 -75z m119 4 c32 -67 35 -89 12 -74 -10 6 -40 64 -61 120 -7 18 -6
25 3 25 7 0 28 -32 46 -71z m31 61 c0 -5 -2 -10 -4 -10 -3 0 -8 5 -11 10 -3 6
-1 10 4 10 6 0 11 -4 11 -10z m219 -65 l74 -75 -38 0 c-34 0 -46 8 -107 68
-37 37 -68 70 -68 75 0 4 15 7 33 7 27 0 44 -13 106 -75z m81 30 c0 -25 -1
-45 -3 -45 -2 0 -23 20 -47 45 l-44 45 47 0 47 0 0 -45z m220 -30 l74 -75 -38
0 c-33 0 -46 8 -107 67 -38 36 -69 70 -69 75 0 4 15 8 33 8 26 -1 45 -14 107
-75z m80 30 c0 -25 -1 -45 -3 -45 -2 0 -23 20 -47 45 l-44 45 47 0 47 0 0 -45z
m1210 5 c0 -22 -3 -40 -7 -40 -5 0 -16 -14 -26 -31 -10 -18 -20 -30 -22 -27
-7 6 38 138 47 138 4 0 8 -18 8 -40z m-1040 4 c14 -7 47 -35 75 -63 l49 -51
-38 0 c-34 0 -46 8 -110 70 -71 70 -71 70 -36 64 19 -4 46 -13 60 -20z m-2001
-135 c8 -13 5 -18 -12 -23 -56 -15 -57 -13 -57 87 l1 92 29 -70 c16 -38 34
-77 39 -86z m3481 143 c0 -4 32 -40 70 -80 39 -39 67 -72 63 -72 -5 0 -44 36
-87 80 -47 48 -72 80 -62 80 9 0 16 -3 16 -8z m-2671 -39 c24 -21 58 -50 75
-65 l31 -28 -38 0 c-21 0 -44 6 -51 13 -7 6 -36 32 -65 56 -38 32 -48 47 -39
52 24 16 44 9 87 -28z m1591 -3 c0 -33 -3 -38 -17 -33 -29 10 -43 24 -43 43 0
19 13 28 43 29 13 1 17 -7 17 -39z m184 21 c10 -11 16 -29 14 -40 -3 -19 -7
-18 -48 19 l-45 39 31 1 c18 0 38 -8 48 -19z m1179 -71 c15 -13 27 -32 27 -42
0 -17 -7 -19 -52 -16 l-53 3 -11 73 -11 73 36 -34 c20 -19 48 -45 64 -57z
m-1633 49 c0 -24 -2 -24 -29 5 l-22 23 25 -4 c17 -4 26 -12 26 -24z m-1786 -6
c-5 -17 -9 -19 -19 -10 -10 9 -9 14 4 24 20 14 22 13 15 -14z m1036 -70 c0 -2
-20 -3 -45 -3 l-45 0 0 47 0 47 45 -44 c25 -24 45 -45 45 -47z m300 0 c0 -2
-20 -3 -45 -3 l-45 0 0 47 0 47 45 -44 c25 -24 45 -45 45 -47z m300 0 c0 -2
-20 -3 -45 -3 l-45 0 0 47 0 47 45 -44 c25 -24 45 -45 45 -47z m1505 27 l59
-60 -73 0 -73 0 7 46 c6 42 14 74 19 74 1 0 28 -27 61 -60z m300 50 c3 -6 -1
-7 -9 -4 -18 7 -21 14 -7 14 6 0 13 -4 16 -10z m308 -5 c-4 -17 -37 -17 -58 0
-19 14 -18 15 20 13 22 -2 39 -7 38 -13z m-3328 -77 c5 -5 -10 -8 -33 -8 -42
0 -42 0 -42 37 l0 37 33 -30 c17 -16 36 -32 42 -36z m1745 47 c10 -13 9 -15
-9 -15 -12 0 -21 6 -21 15 0 8 4 15 9 15 5 0 14 -7 21 -15z m-3074 -9 c3 -8 4
-24 2 -36 -3 -20 -5 -19 -37 14 l-35 36 32 0 c19 0 35 -6 38 -14z m3274 -42
c0 -2 -16 -4 -35 -4 -32 0 -35 2 -35 31 l0 30 35 -27 c19 -14 35 -28 35 -30z
m110 4 c0 -5 -7 -8 -15 -8 -10 0 -15 10 -15 33 l1 32 14 -25 c8 -14 14 -28 15
-32z m320 -14 c0 -2 -9 -4 -20 -4 -21 0 -24 10 -13 49 6 22 6 22 19 -9 8 -18
14 -34 14 -36z m-3580 7 l71 -38 -47 -7 c-26 -3 -60 -6 -75 -6 -28 0 -29 2
-29 45 0 25 2 45 4 45 3 0 37 -17 76 -39z m1004 24 c-4 -8 -11 -12 -16 -9 -6
4 -5 10 3 15 19 12 19 11 13 -6z m590 -1 c3 -8 2 -12 -4 -9 -6 3 -10 10 -10
16 0 14 7 11 14 -7z m-1306 -21 c17 -39 16 -43 -18 -43 -33 0 -36 7 -18 45 14
32 20 31 36 -2z m3202 12 c0 -8 -4 -15 -10 -15 -5 0 -7 7 -4 15 4 8 8 15 10
15 2 0 4 -7 4 -15z m-3680 -30 l34 -35 -37 0 c-36 0 -37 1 -37 35 0 19 1 35 3
35 2 0 18 -16 37 -35z m747 -11 c-12 -13 -37 6 -37 28 l0 22 22 -21 c12 -13
19 -25 15 -29z m3222 17 c-15 -5 -22 6 -14 19 6 9 10 9 16 -1 5 -8 4 -15 -2
-18z m-925 -33 c3 -17 5 -33 3 -34 -1 -2 -15 12 -30 31 l-28 35 24 0 c19 0 26
-7 31 -32z m-284 -10 c0 -30 0 -31 -20 -13 -25 22 -25 32 -2 38 9 3 18 5 20 6
1 0 2 -13 2 -31z m98 -1 c16 -27 17 -37 7 -50 -7 -9 -20 -17 -29 -17 -13 0
-16 10 -16 50 0 28 4 50 9 50 5 0 18 -15 29 -33z m52 23 c0 -5 -2 -10 -4 -10
-3 0 -8 5 -11 10 -3 6 -1 10 4 10 6 0 11 -4 11 -10z m-1950 -20 c0 -11 -1 -20
-3 -20 -1 0 -10 9 -20 20 -16 19 -16 20 3 20 13 0 20 -7 20 -20z m148 -3 c4
-22 -1 -21 -22 2 -17 19 -17 19 1 17 10 -2 19 -10 21 -19z m152 -17 c0 -40 -6
-47 -25 -32 -40 29 -40 72 1 72 21 0 24 -4 24 -40z m222 0 l43 -39 -50 -1
c-46 0 -55 4 -90 40 l-39 40 46 0 c40 0 52 -5 90 -40z m78 20 c0 -11 -4 -20
-8 -20 -5 0 -17 9 -27 20 -18 20 -17 20 8 20 20 0 27 -5 27 -20z m113 -9 c17
-35 8 -54 -24 -49 -20 2 -25 10 -27 41 -3 31 0 37 17 37 12 0 25 -12 34 -29z
m156 -7 c13 -30 14 -44 2 -44 -8 0 -41 60 -41 74 0 14 29 -8 39 -30z m258 4
c18 -18 33 -36 33 -40 0 -4 -20 -8 -45 -8 -35 0 -51 6 -80 31 -19 17 -35 35
-35 40 0 5 21 9 47 9 39 0 52 -5 80 -32z m73 12 c0 -11 -2 -20 -3 -20 -2 0
-12 9 -22 20 -18 19 -17 20 3 20 15 0 22 -6 22 -20z m235 -20 l39 -40 -52 0
c-48 0 -57 4 -94 40 l-42 40 55 0 c51 0 58 -3 94 -40z m65 20 c0 -11 -2 -20
-3 -20 -2 0 -12 9 -22 20 -18 19 -17 20 3 20 15 0 22 -6 22 -20z m234 -25 l37
-45 -26 0 c-27 0 -80 23 -87 37 -1 5 -16 18 -32 31 l-29 22 50 0 c48 0 53 -3
87 -45z m516 14 c0 -25 -4 -24 -23 5 -15 23 -15 24 3 19 11 -3 20 -14 20 -24z
m160 1 c0 -11 -2 -20 -3 -20 -2 0 -12 9 -22 20 -18 19 -17 20 3 20 15 0 22 -6
22 -20z m116 -12 c16 -31 16 -32 0 -19 -23 19 -40 51 -27 51 6 0 18 -15 27
-32z m194 28 c0 -18 -22 -56 -32 -56 -17 0 -41 38 -33 50 6 10 65 14 65 6z
m114 -16 c5 -5 6 -16 2 -25 -5 -14 -9 -15 -22 -4 -8 7 -20 21 -25 32 -10 17
-8 18 13 12 12 -4 27 -11 32 -15z m179 -10 c-6 -23 -45 -27 -62 -6 -14 16 -2
24 41 25 21 1 25 -3 21 -19z m256 -5 c14 -13 7 -15 -66 -15 -67 0 -85 3 -104
21 l-24 20 89 -5 c61 -4 94 -10 105 -21z m-1649 -31 c0 -2 -13 -4 -30 -4 -26
0 -30 4 -30 26 l0 25 30 -21 c17 -12 30 -23 30 -26z m420 16 l21 -30 -25 0
c-22 0 -26 4 -26 30 0 17 2 30 4 30 3 0 14 -13 26 -30z m320 -6 c0 -2 -11 -4
-25 -4 -18 0 -25 5 -25 20 0 20 1 20 25 4 14 -9 25 -18 25 -20z m-2415 -12
c-9 -9 -35 8 -35 24 0 16 2 16 20 -1 11 -10 18 -20 15 -23z m150 0 c-9 -9 -35
8 -35 24 0 16 2 16 20 -1 11 -10 18 -20 15 -23z m288 18 c16 -19 16 -20 -3
-20 -13 0 -20 7 -20 20 0 11 1 20 3 20 1 0 10 -9 20 -20z m602 0 c18 -19 17
-20 -3 -20 -15 0 -22 6 -22 20 0 11 2 20 3 20 2 0 12 -9 22 -20z m300 0 c18
-19 17 -20 -3 -20 -15 0 -22 6 -22 20 0 11 2 20 3 20 2 0 12 -9 22 -20z m900
-18 c-21 -5 -40 12 -30 28 5 8 13 6 27 -7 18 -16 19 -18 3 -21z m-3079 4 c3
-8 4 -24 2 -36 -3 -20 -5 -19 -37 14 l-35 36 32 0 c19 0 35 -6 38 -14z m308
-34 c3 -20 8 -62 12 -92 7 -59 8 -59 -46 -13 -8 8 -46 38 -85 69 -38 31 -75
61 -82 67 -9 9 13 11 92 9 l103 -3 6 -37z m109 -2 c-9 -22 -20 -40 -25 -40 -4
0 -8 2 -8 4 0 2 -7 20 -15 40 l-15 36 39 0 39 0 -15 -40z m171 -9 c-17 -88
-18 -88 -45 -20 l-25 64 38 -3 c38 -4 38 -4 32 -41z m99 32 c-7 -2 -13 -10
-13 -16 0 -7 -7 -21 -15 -31 -14 -19 -15 -18 -15 17 0 34 2 37 28 36 15 0 21
-3 15 -6z m3507 -25 c-1 -13 -6 -52 -13 -88 l-12 -64 -62 78 c-35 43 -63 82
-63 87 0 5 34 9 75 9 71 0 75 -1 75 -22z m160 12 c0 -13 -11 -13 -30 0 -12 8
-11 10 8 10 12 0 22 -4 22 -10z m-4400 -62 c0 -4 -13 -8 -30 -8 -28 0 -30 3
-30 37 l0 37 30 -29 c17 -16 30 -32 30 -37z m174 0 c39 -34 75 -65 80 -69 4
-4 -30 7 -78 24 l-86 31 0 38 c0 21 3 38 6 38 4 0 38 -28 78 -62z m3630 46 c9
-24 2 -26 -12 -4 -7 11 -8 20 -3 20 5 0 12 -7 15 -16z m291 -69 c22 -28 47
-59 55 -70 12 -18 12 -18 -1 -5 -25 25 -115 134 -124 150 -10 20 20 -13 70
-75z m560 65 c10 -11 16 -20 13 -20 -3 0 -13 9 -23 20 -10 11 -16 20 -13 20 3
0 13 -9 23 -20z m-3268 -5 c5 -8 35 -42 66 -75 55 -57 57 -60 31 -60 -20 0
-46 19 -103 75 l-76 75 37 0 c23 0 40 -6 45 -15z m153 -40 c0 -30 -1 -55 -2
-55 -2 0 -27 25 -56 55 l-54 55 56 0 56 0 0 -55z m1808 -10 l3 -60 -50 50
c-65 64 -65 77 -3 73 l47 -3 3 -60z m134 23 c41 -46 82 -121 76 -139 -2 -5
-28 22 -58 62 -30 39 -63 82 -73 95 -18 23 -18 24 -1 24 10 0 35 -19 56 -42z
m76 17 c-3 -3 -9 2 -12 12 -6 14 -5 15 5 6 7 -7 10 -15 7 -18z m193 -2 c8 -16
17 -30 20 -33 8 -6 79 -110 79 -116 0 -2 -6 -1 -14 2 -24 9 -127 174 -108 174
5 0 15 -12 23 -27z m179 -67 c0 -52 -11 -39 -32 37 l-16 62 24 -30 c16 -20 24
-43 24 -69z m415 67 c75 -37 73 -55 -10 -95 -37 -17 -68 -28 -71 -26 -5 6 16
148 22 148 2 0 28 -12 59 -27z m-3160 7 c8 -13 -5 -13 -25 0 -13 8 -13 10 2
10 9 0 20 -4 23 -10z m444 -11 c-9 -17 -13 -19 -20 -8 -14 22 -11 29 11 29 18
0 19 -3 9 -21z m61 -54 c0 -58 -3 -75 -14 -75 -25 0 -30 56 -9 105 10 25 19
45 21 45 1 0 2 -34 2 -75z m118 8 c36 -76 38 -83 19 -83 -7 0 -21 19 -31 43
-10 23 -24 54 -31 69 -12 25 -10 38 5 38 3 0 20 -30 38 -67z m30 42 c-3 -3 -9
2 -12 12 -6 14 -5 15 5 6 7 -7 10 -15 7 -18z m221 -50 l75 -75 -39 0 c-34 0
-46 8 -113 75 l-75 75 38 0 c34 0 46 -8 114 -75z m81 30 c0 -25 -1 -45 -3 -45
-2 0 -23 20 -47 45 l-44 45 47 0 47 0 0 -45z m219 -30 l76 -75 -40 0 c-36 0
-47 7 -115 75 l-75 75 39 0 c35 0 46 -8 115 -75z m81 29 l0 -45 -45 42 c-25
23 -45 44 -45 46 0 1 20 3 45 3 l45 0 0 -46z m232 -6 l63 -53 -40 -5 c-44 -6
-50 -3 -130 68 l-48 42 46 0 c41 0 53 -6 109 -52z m68 25 l0 -26 -27 24 c-16
13 -30 25 -32 27 -2 1 10 2 27 2 28 0 32 -3 32 -27z m897 -45 c-3 -23 -3 -23
-14 2 -6 14 -14 36 -18 50 l-7 25 21 -27 c13 -16 21 -37 18 -50z m-757 58 c0
-3 -4 -8 -10 -11 -5 -3 -10 -1 -10 4 0 6 5 11 10 11 6 0 10 -2 10 -4z m-2382
-128 l-3 -43 -14 43 c-12 36 -12 48 0 85 l14 42 3 -42 c2 -24 2 -62 0 -85z
m2692 92 c0 -11 -2 -20 -3 -20 -2 0 -12 9 -22 20 -18 19 -17 20 3 20 15 0 22
-6 22 -20z m-2250 -7 c0 -17 -15 -16 -30 1 -9 12 -8 15 9 13 12 -1 21 -7 21
-14z m426 -59 c0 -1 -16 1 -33 3 -29 5 -33 9 -33 37 l0 31 34 -35 c18 -19 33
-36 32 -36z m1208 7 c11 -12 15 -21 10 -21 -5 0 -26 -4 -46 -9 l-38 -9 0 50 0
49 28 -19 c15 -11 36 -29 46 -41z m-584 -38 c0 -2 -20 -3 -45 -3 l-45 0 0 47
0 47 45 -44 c25 -24 45 -45 45 -47z m300 0 c0 -2 -20 -3 -45 -3 l-45 0 0 47 0
47 45 -44 c25 -24 45 -45 45 -47z m856 20 c-1 -1 -11 0 -23 3 -14 4 -22 16
-25 36 l-5 31 28 -34 c15 -19 26 -35 25 -36z m149 -21 c-35 -5 -65 23 -65 60
l0 30 46 -44 c45 -43 45 -43 19 -46z m176 6 l20 -28 -23 0 c-59 0 -68 9 -68
64 l1 51 25 -30 c14 -16 34 -42 45 -57z m1185 67 c18 -13 16 -14 -23 -15 -40
0 -52 8 -36 23 11 12 38 8 59 -8z m-4092 -45 c14 -42 14 -45 -4 -63 -20 -18
-20 -17 -20 49 0 37 2 65 4 63 3 -2 11 -24 20 -49z m314 29 l27 -21 -35 4
c-24 2 -36 9 -38 21 -5 23 14 22 46 -4z m165 -13 c4 -10 1 -13 -9 -9 -15 6
-19 23 -5 23 5 0 11 -7 14 -14z m1967 -7 c0 -5 -10 -9 -21 -9 -18 0 -19 2 -9
15 12 15 30 12 30 -6z m1054 -18 c-6 -6 -24 19 -24 34 1 6 7 1 15 -9 8 -11 12
-22 9 -25z m-93 -34 c-8 -8 -11 -4 -11 14 0 33 14 47 18 19 2 -12 -1 -27 -7
-33z m-2207 27 c3 -8 2 -12 -4 -9 -6 3 -10 10 -10 16 0 14 7 11 14 -7z m1100
1 c3 -9 -3 -19 -14 -25 -15 -8 -21 -6 -29 9 -6 10 -7 21 -4 25 12 11 41 6 47
-9z m813 -7 c-3 -8 -6 -5 -6 6 -1 11 2 17 5 13 3 -3 4 -12 1 -19z m-941 -23
c-5 -13 -9 -13 -26 -3 -20 13 -20 13 2 19 28 7 32 4 24 -16z m-1502 0 c-4 -8
-10 -15 -14 -15 -4 0 -13 7 -20 15 -11 13 -8 15 13 15 19 0 25 -4 21 -15z
m221 -45 c36 -37 38 -40 17 -40 -39 0 -86 26 -114 62 l-27 36 42 -10 c28 -6
56 -22 82 -48z m-1008 28 c-3 -8 -6 -5 -6 6 -1 11 2 17 5 13 3 -3 4 -12 1 -19z
m2231 -16 c18 -14 30 -27 28 -30 -5 -4 -160 -32 -161 -28 -1 0 -8 17 -16 36
l-16 35 56 11 c61 11 62 11 109 -24z m597 -23 l40 -39 -65 6 c-58 6 -69 10
-105 45 l-40 39 65 -6 c58 -6 69 -10 105 -45z m-1747 32 c8 -5 12 -15 10 -23
-2 -12 -8 -10 -28 9 -25 23 -12 33 18 14z m1482 -16 c0 -24 -2 -25 -62 -24
l-63 0 60 24 c33 13 61 24 63 24 1 1 2 -10 2 -24z m1110 9 c0 -2 -9 -4 -20 -4
-11 0 -20 4 -20 9 0 5 9 7 20 4 11 -3 20 -7 20 -9z m-2468 -21 c20 -36 13 -53
-23 -53 -27 0 -29 2 -29 40 0 32 4 40 18 40 10 0 25 -12 34 -27z m157 -13 c16
-28 18 -40 9 -40 -11 0 -25 21 -45 68 -13 30 15 8 36 -28z m266 0 l39 -40 -63
0 c-65 0 -80 9 -112 63 -9 15 -4 17 44 17 49 0 56 -3 92 -40z m65 20 c0 -11
-2 -20 -3 -20 -2 0 -12 9 -22 20 -18 19 -17 20 3 20 15 0 22 -6 22 -20z m235
-20 l39 -40 -54 0 c-51 0 -58 3 -94 40 l-40 40 55 0 c51 0 58 -3 94 -40z m65
20 c0 -11 -2 -20 -3 -20 -2 0 -12 9 -22 20 -18 19 -17 20 3 20 15 0 22 -6 22
-20z m907 5 c9 -25 -2 -27 -22 -5 -17 18 -17 20 -1 20 9 0 19 -7 23 -15z m397
-1 c3 -8 2 -12 -4 -9 -6 3 -10 10 -10 16 0 14 7 11 14 -7z m63 -1 c26 -34 34
-53 21 -48 -7 3 -21 19 -30 35 -19 33 -13 40 9 13z m-702 -25 c6 -4 2 -8 -7
-8 -10 0 -18 7 -18 17 0 9 3 12 8 7 4 -5 12 -12 17 -16z m416 14 c9 -4 29 -22
44 -40 l27 -33 -43 7 c-31 5 -54 16 -78 40 l-33 34 33 -1 c19 0 41 -3 50 -7z
m-2341 -25 c31 -15 40 -26 33 -44 -3 -8 -9 -11 -12 -6 -3 5 -26 24 -51 42 -34
25 -39 31 -20 26 14 -3 36 -12 50 -18z m-318 -19 c14 -23 8 -28 -19 -15 -28
12 -53 31 -53 41 0 9 64 -14 72 -26z m1363 12 c18 -20 17 -20 -8 -20 -20 0
-27 5 -27 20 0 11 4 20 8 20 5 0 17 -9 27 -20z m1195 -5 c10 -12 10 -15 -4
-15 -9 0 -16 7 -16 15 0 8 2 15 4 15 2 0 9 -7 16 -15z m980 -72 l-1 -88 -35
69 c-19 38 -33 75 -30 82 3 7 17 14 33 17 15 2 29 5 31 6 1 0 2 -38 2 -86z
m-2475 67 c3 -5 1 -10 -4 -10 -6 0 -11 5 -11 10 0 6 2 10 4 10 3 0 8 -4 11
-10z m-462 -121 c15 -19 36 -45 47 -58 25 -30 25 -31 -1 -31 -34 0 -109 94
-139 175 -11 29 -10 28 27 -11 21 -23 50 -57 66 -75z m1396 97 c9 -10 8 -15
-4 -20 -10 -4 -15 1 -15 14 0 24 4 25 19 6z m1646 4 c3 -5 1 -10 -4 -10 -6 0
-11 5 -11 10 0 6 2 10 4 10 3 0 8 -4 11 -10z m-1836 -51 c-38 -99 -37 -99 -74
-28 l-33 64 36 6 c20 3 49 7 64 8 l28 1 -21 -51z m571 -44 c90 -91 93 -95 65
-95 -25 0 -47 18 -124 95 -90 90 -93 95 -65 95 24 0 47 -18 124 -95z m480 79
c0 -2 -9 -4 -21 -4 -11 0 -18 4 -14 10 5 8 35 3 35 -6z m530 -76 l0 -93 -25
26 -26 25 21 67 c11 37 23 67 25 67 3 0 5 -42 5 -92z m211 -31 l-19 -42 0 85
-1 85 20 -43 c19 -43 19 -44 0 -85z m-2935 103 c10 0 14 -13 14 -45 0 -25 -3
-45 -6 -45 -6 0 -49 49 -73 83 -14 19 -13 20 19 14 18 -4 39 -7 46 -7z m1494
-29 c0 -22 3 -48 6 -58 4 -10 -10 -2 -35 22 -47 45 -49 52 -18 65 40 16 47 12
47 -29z m323 20 c5 -5 7 -31 5 -59 l-3 -50 -65 65 -65 65 60 -7 c33 -4 64 -10
68 -14z m-2500 -70 c9 -11 17 -25 17 -31 0 -5 8 -14 18 -19 9 -6 12 -11 5 -11
-6 0 -35 33 -63 73 -44 62 -32 56 23 -12z m281 42 c20 -21 39 -45 42 -55 3
-10 9 -18 14 -18 13 0 42 -58 32 -64 -5 -3 -22 13 -38 35 -16 22 -42 54 -57
72 -61 70 -55 94 7 30z m-424 -49 l0 -75 -45 37 c-25 20 -45 40 -45 44 0 7 78
70 87 70 2 0 3 -34 3 -76z m929 55 c-9 -17 -13 -19 -20 -8 -14 22 -11 29 11
29 18 0 19 -3 9 -21z m61 -54 c0 -60 -3 -75 -15 -75 -8 0 -15 9 -15 19 0 11
-4 22 -9 26 -8 4 27 104 37 105 1 0 2 -34 2 -75z m97 58 c7 -10 27 -44 43 -76
30 -59 32 -89 3 -66 -19 16 -83 146 -75 153 9 9 14 7 29 -11z m251 -73 l71
-90 -33 0 c-30 0 -39 8 -92 78 -32 42 -61 79 -66 80 -15 7 3 22 26 22 16 0 42
-24 94 -90z m101 68 c0 -13 -4 -43 -7 -66 l-7 -44 -53 66 -53 66 61 0 c56 0
60 -2 59 -22z m226 -58 l80 -80 -40 0 c-37 0 -47 6 -120 80 l-80 80 40 0 c36
0 47 -8 120 -80z m75 35 c0 -25 -1 -45 -3 -45 -2 0 -23 20 -47 45 l-44 45 47
0 47 0 0 -45z m122 -30 c31 -64 34 -75 19 -75 -16 0 -34 32 -79 142 -2 4 3 8
10 8 8 0 30 -34 50 -75z m976 11 c34 -35 62 -67 62 -70 0 -3 -10 -6 -23 -6
-21 0 -87 60 -136 123 -12 15 -11 17 11 17 17 0 43 -20 86 -64z m-794 -20
c-28 -44 -34 -29 -11 27 19 46 22 49 25 25 2 -15 -4 -38 -14 -52z m873 48 c2
-7 3 -20 1 -29 -2 -13 -10 -9 -36 18 l-33 34 31 -5 c18 -2 34 -10 37 -18z
m-2728 7 c7 -5 12 -14 9 -21 -2 -7 -10 -4 -22 9 -19 21 -12 28 13 12z m181
-41 c3 -3 25 -28 48 -57 l43 -52 -48 -6 c-26 -4 -56 -9 -65 -12 -16 -4 -18 5
-18 89 0 90 0 92 17 68 9 -14 19 -27 23 -30z m1887 -12 c35 -34 63 -66 63 -70
0 -4 -10 -8 -23 -8 -33 0 -147 118 -126 131 21 13 18 14 86 -53z m-2165 -12
c39 -49 40 -53 10 -59 -15 -3 -35 -9 -44 -12 -16 -6 -18 0 -18 66 1 67 2 72
15 54 8 -11 25 -33 37 -49z m3003 42 c14 -12 25 -28 25 -35 0 -15 -30 -1 -81
38 l-24 19 27 0 c16 0 39 -10 53 -22z m-1553 -119 c-37 -3 -67 -5 -68 -5 -1 1
1 32 4 70 l4 68 64 -63 63 -64 -67 -6z m917 13 c-28 -2 -54 -1 -57 2 -3 4 -7
32 -10 64 l-4 57 61 -60 62 -60 -52 -3z m338 12 c-1 -1 -23 -4 -49 -7 l-48 -7
0 61 0 60 49 -53 c27 -29 48 -53 48 -54z m873 -50 c0 -2 -18 -4 -40 -4 l-40 0
1 83 0 82 40 -79 c21 -43 39 -80 39 -82z m-2986 71 l16 -40 -20 24 c-11 13
-20 31 -20 40 0 9 -4 22 -10 29 -6 8 -5 8 4 0 8 -7 21 -31 30 -53z m3299 42
c10 -4 17 -17 17 -32 0 -33 -4 -32 -29 11 -20 33 -30 62 -13 38 4 -6 15 -13
25 -17z m-4250 0 c3 -8 1 -20 -4 -28 -6 -10 -9 -7 -9 14 0 29 5 35 13 14z
m3291 -22 c33 -30 36 -35 18 -35 -42 0 -72 18 -72 45 0 33 7 31 54 -10z m922
-54 l35 -54 -43 7 c-23 4 -43 8 -44 9 -1 1 -5 31 -8 67 -8 74 -6 73 60 -29z
m-3326 46 c0 -5 -4 -5 -10 -2 -5 3 -10 14 -10 23 0 15 2 15 10 2 5 -8 10 -19
10 -23z m1547 1 c18 -18 33 -36 33 -40 0 -4 -21 -8 -46 -8 -43 0 -46 2 -40 23
3 12 6 30 6 40 0 24 9 21 47 -15z m-904 -66 c-31 -4 -30 -5 -38 43 l-7 40 35
-40 35 -40 -25 -3z m2077 58 c6 -11 8 -20 6 -20 -3 0 -10 9 -16 20 -6 11 -8
20 -6 20 3 0 10 -9 16 -20z m-2271 -33 c1 -5 -3 -5 -9 -2 -5 3 -10 16 -9 28 0
21 1 21 9 2 5 -11 9 -24 9 -28z m2116 5 c-21 -5 -40 12 -30 28 5 8 13 6 27 -7
18 -16 19 -18 3 -21z m654 -44 c1 -5 -15 -8 -34 -8 -40 0 -42 5 -18 56 l18 36
17 -39 c9 -21 17 -41 17 -45z m-2025 57 c3 -8 1 -15 -4 -15 -6 0 -10 7 -10 15
0 8 2 15 4 15 2 0 6 -7 10 -15z m246 -15 c0 -5 -5 -10 -11 -10 -5 0 -7 5 -4
10 3 6 8 10 11 10 2 0 4 -4 4 -10z m860 -41 c0 -6 -4 -7 -10 -4 -5 3 -10 11
-10 16 0 6 5 7 10 4 6 -3 10 -11 10 -16z m200 0 c0 -5 -8 -9 -17 -9 -10 0 -27
-3 -39 -6 -12 -3 -29 2 -43 13 -22 18 -21 18 38 15 34 -2 61 -8 61 -13z m-256
-18 l27 -28 -60 -7 c-58 -7 -62 -6 -85 21 l-24 28 46 6 c26 3 52 7 58 7 5 1
23 -11 38 -27z m621 19 c3 -5 -1 -10 -10 -10 -9 0 -13 5 -10 10 3 6 8 10 10
10 2 0 7 -4 10 -10z m-2530 -32 c15 -38 12 -48 -16 -48 -19 0 -39 34 -39 66 0
28 41 15 55 -18z m785 11 c0 -18 -2 -19 -15 -9 -15 12 -12 30 6 30 5 0 9 -10
9 -21z m170 -1 c0 -19 -2 -20 -10 -8 -13 19 -13 30 0 30 6 0 10 -10 10 -22z
m142 -8 c-4 -40 -10 -50 -30 -50 -35 0 -44 24 -21 54 26 33 55 31 51 -4z
m-1392 -35 c0 -3 -9 -5 -20 -5 -21 0 -43 37 -33 54 5 7 53 -36 53 -49z m180
45 c0 -5 -2 -10 -4 -10 -3 0 -8 5 -11 10 -3 6 -1 10 4 10 6 0 11 -4 11 -10z
m277 -23 c12 -17 25 -40 29 -50 6 -16 4 -16 -19 -6 -25 11 -47 47 -47 74 0 24
13 17 37 -18z m565 -6 l38 -38 -57 -6 c-61 -6 -104 8 -126 43 -6 11 -19 21
-27 22 -13 1 62 12 115 16 12 1 36 -14 57 -37z m600 10 l27 -29 -31 -6 c-59
-12 -82 -6 -111 30 l-29 34 59 0 c51 0 61 -3 85 -29z m303 -1 l29 -30 -65 0
c-59 0 -68 3 -94 30 l-29 30 65 0 c59 0 68 -3 94 -30z m65 14 c0 -14 -3 -14
-15 -4 -8 7 -15 14 -15 16 0 2 7 4 15 4 8 0 15 -7 15 -16z m-2553 -10 c-3 -3
-12 -4 -19 -1 -8 3 -5 6 6 6 11 1 17 -2 13 -5z m407 -13 c16 -17 16 -19 -6
-25 -43 -11 -85 -6 -107 13 l-22 20 28 4 c64 9 90 7 107 -12z m830 -3 c27 -39
0 -46 -35 -10 l-31 32 25 0 c15 0 32 -9 41 -22z m486 -3 l23 -25 -26 0 c-22 0
-27 5 -27 25 0 14 1 25 3 25 2 0 14 -11 27 -25z m305 -5 c18 -20 18 -20 -8
-18 -18 2 -27 8 -27 20 0 24 13 23 35 -2z m290 0 c3 -5 1 -10 -4 -10 -6 0 -11
5 -11 10 0 6 2 10 4 10 3 0 8 -4 11 -10z m753 3 c-10 -2 -28 -2 -40 0 -13 2
-5 4 17 4 22 1 32 -1 23 -4z m-3005 -23 c-9 -34 -27 -41 -46 -19 -13 14 -14
21 -5 23 7 3 20 7 28 9 26 9 28 8 23 -13z m1110 -20 c18 -21 18 -21 -15 -18
-28 3 -34 7 -36 31 -3 25 -1 27 15 18 10 -5 26 -19 36 -31z m237 15 l23 -25
-26 0 c-22 0 -27 5 -27 25 0 14 1 25 3 25 2 0 14 -11 27 -25z m-1160 -1 c0 -2
-7 -4 -15 -4 -8 0 -15 4 -15 10 0 5 7 7 15 4 8 -4 15 -8 15 -10z m3190 -78
c-5 -43 -11 -80 -13 -83 -2 -2 -21 15 -41 37 -30 33 -36 47 -36 84 l0 45 43 3
c23 2 45 1 49 -2 4 -3 3 -40 -2 -84z m160 69 c0 -14 -1 -25 -3 -25 -2 0 -14
11 -27 25 l-23 25 26 0 c22 0 27 -5 27 -25z m105 5 c-14 -16 -20 -17 -27 -8
-13 22 -9 28 19 28 26 0 26 0 8 -20z m205 17 c0 -2 14 -41 30 -87 22 -58 26
-79 15 -70 -8 7 -15 18 -15 25 0 8 -3 15 -8 17 -10 4 -92 103 -92 111 0 4 16
7 35 7 19 0 35 -1 35 -3z m-1086 -102 c8 -90 15 -91 -73 12 -50 60 -51 63 -29
67 39 9 83 12 89 6 4 -3 10 -41 13 -85z m-2679 55 c-10 -11 -28 -20 -39 -20
-18 0 -17 3 9 19 39 26 53 26 30 1z m2590 -88 c48 -57 85 -105 83 -107 -2 -2
-14 -2 -27 2 -30 8 -184 195 -168 205 7 4 15 7 18 5 4 -1 46 -48 94 -105z
m-2287 86 c0 -7 4 -24 8 -37 l7 -25 -41 30 c-23 16 -42 32 -42 37 0 13 67 8
68 -5z m106 -3 c-5 -12 -10 -13 -20 -4 -19 15 -18 19 6 19 13 0 18 -5 14 -15z
m148 -15 c9 -17 14 -30 9 -30 -11 0 -51 39 -51 50 0 21 26 8 42 -20z m1442
-50 c75 -76 78 -80 51 -80 -22 0 -45 17 -101 72 -40 39 -71 75 -68 80 13 21
45 1 118 -72z m102 66 c3 -7 4 -34 2 -60 l-3 -46 -59 60 -60 60 57 0 c40 0 59
-4 63 -14z m204 -71 c79 -80 83 -85 56 -85 -21 0 -45 17 -98 68 -85 82 -98
102 -66 102 15 0 51 -28 108 -85z m100 25 c0 -33 -1 -60 -3 -60 -1 0 -29 27
-62 60 l-59 60 62 0 62 0 0 -60z m1011 -12 c7 -13 1 -21 -29 -39 -20 -13 -43
-27 -49 -32 -10 -6 -11 6 -7 55 8 94 10 96 45 62 17 -16 35 -36 40 -46z m181
22 c-4 -55 -16 -64 -29 -23 -7 21 -5 32 11 50 11 13 20 23 20 23 1 0 -1 -22
-2 -50z m225 -177 c-2 -1 -48 7 -101 19 l-97 22 6 85 c4 47 9 90 12 94 2 4 45
-43 94 -104 49 -62 88 -114 86 -116z m-3613 175 c42 -30 38 -35 -15 -16 -52
17 -83 40 -68 49 16 9 35 2 83 -33z m486 30 c0 -7 -4 -19 -9 -26 -6 -10 -10
-7 -13 12 -4 18 -1 26 8 26 8 0 14 -6 14 -12z m793 -47 l-8 -30 -45 37 -44 37
49 5 c55 6 61 0 48 -49z m157 49 c0 -18 -40 -32 -56 -19 -23 19 -16 29 21 29
19 0 35 -4 35 -10z m81 -7 c13 -16 12 -17 -3 -4 -17 13 -22 21 -14 21 2 0 10
-8 17 -17z m-857 -63 c30 -60 32 -70 17 -70 -11 0 -27 22 -48 65 -28 60 -31
75 -12 75 4 0 23 -31 43 -70z m2126 41 c0 -60 -10 -65 -46 -24 l-34 38 27 6
c49 11 53 10 53 -20z m-3575 -43 c-4 -35 -9 -65 -11 -67 -2 -2 -19 12 -39 32
l-36 36 28 18 c15 10 34 23 41 30 22 21 24 15 17 -49z m1320 -56 c-3 -3 -13 1
-22 10 -14 15 -14 20 3 62 l19 46 3 -56 c2 -31 0 -59 -3 -62z m621 89 c21 -16
52 -41 68 -55 l29 -26 -49 0 c-44 0 -55 5 -106 48 -57 47 -57 47 -30 53 45 11
48 10 88 -20z m-439 -1 c1 -11 -2 -20 -8 -20 -5 0 -9 2 -9 4 0 2 -3 11 -6 20
-4 10 -1 16 8 16 7 0 14 -9 15 -20z m1011 -88 c-27 -5 -103 14 -102 26 1 6 2
28 3 49 l1 36 55 -54 c31 -30 50 -55 43 -57z m968 61 c33 -37 40 -49 27 -51
-9 -3 -38 18 -67 47 -45 46 -48 51 -27 51 15 0 39 -17 67 -47z m-1797 24 c8
-11 5 -19 -15 -36 -35 -30 -54 -14 -28 23 22 29 27 31 43 13z m450 -1 c9 -10
8 -16 -4 -26 -13 -11 -15 -8 -15 14 0 30 3 32 19 12z m661 -51 l54 -55 -57 0
-57 0 0 55 c0 30 1 55 3 55 1 0 27 -25 57 -55z m-2054 1 c8 -9 23 -20 32 -25
38 -21 -1 -22 -65 -1 -85 28 -82 26 -76 49 4 17 8 18 49 5 25 -7 51 -20 60
-28z m365 2 c8 -15 6 -18 -11 -18 -23 0 -35 22 -26 47 7 19 11 16 37 -29z
m2020 -61 c9 -17 7 -18 -28 -12 -63 11 -63 11 -63 67 l1 53 40 -45 c22 -25 45
-53 50 -63z m-2546 73 c-3 -5 -12 -10 -18 -10 -7 0 -6 4 3 10 19 12 23 12 15
0z m2831 -27 c-7 -7 -26 7 -26 19 0 6 6 6 15 -2 9 -7 13 -15 11 -17z m-1541
-13 c3 -6 -3 -10 -13 -10 -11 0 -22 9 -25 20 -4 17 -2 18 13 10 11 -6 22 -15
25 -20z m310 -11 c-16 -31 -33 -37 -53 -17 -9 9 -4 17 21 34 40 27 51 22 32
-17z m-2081 -46 c-29 -21 -37 -15 -29 24 10 55 16 59 32 22 13 -30 12 -35 -3
-46z m2235 63 c9 -11 6 -15 -14 -20 -33 -8 -50 1 -34 20 15 18 33 18 48 0z
m-935 -12 c3 -8 2 -12 -4 -9 -6 3 -10 10 -10 16 0 14 7 11 14 -7z m356 -4 c0
-5 -2 -10 -4 -10 -3 0 -8 5 -11 10 -3 6 -1 10 4 10 6 0 11 -4 11 -10z m2343
-20 l32 -30 -53 0 -53 0 16 30 c9 17 18 30 21 30 3 0 19 -13 37 -30z m-3523 0
c0 -22 -12 -25 -41 -10 -28 16 -23 30 11 30 23 0 30 -4 30 -20z m1097 -12 c-3
-8 -6 -5 -6 6 -1 11 2 17 5 13 3 -3 4 -12 1 -19z m383 -18 l0 -31 -31 23 c-30
23 -31 23 -7 29 37 11 38 10 38 -21z m1386 5 l59 -24 -62 -1 c-62 0 -79 9 -69
35 7 19 2 19 72 -10z m-3546 5 c0 -5 -2 -10 -4 -10 -3 0 -8 5 -11 10 -3 6 -1
10 4 10 6 0 11 -4 11 -10z m2633 0 c31 0 46 -8 80 -41 l42 -41 -34 6 c-18 3
-49 6 -67 6 -23 0 -40 7 -52 21 -9 12 -26 31 -37 42 l-20 20 25 -6 c14 -4 42
-7 63 -7z m1452 0 c-3 -5 -12 -10 -18 -10 -7 0 -6 4 3 10 19 12 23 12 15 0z
m-2675 -77 c0 -2 -9 1 -20 7 -14 7 -20 21 -20 43 l1 32 19 -39 c11 -22 20 -41
20 -43z m281 40 c19 -43 15 -63 -12 -63 -21 0 -24 6 -34 63 -5 31 -3 37 12 37
12 0 24 -14 34 -37z m179 18 c0 -10 3 -33 6 -50 5 -26 3 -31 -12 -31 -13 0
-25 13 -35 37 -20 45 -16 58 16 61 18 1 25 -3 25 -17z m209 -13 l42 -33 -33
-7 c-48 -11 -72 -2 -102 37 l-27 35 39 0 c28 0 50 -9 81 -32z m381 16 c0 -8
-5 -12 -10 -9 -6 4 -8 11 -5 16 9 14 15 11 15 -7z m-1530 -15 c18 -11 -46 0
-75 13 -13 5 -7 6 20 2 22 -3 47 -10 55 -15z m227 4 c20 -18 43 -55 43 -69 0
-10 -32 24 -54 59 -21 31 -17 34 11 10z m389 -26 c14 -30 14 -31 -1 -12 -25
30 -39 59 -26 51 6 -4 18 -22 27 -39z m41 21 c-3 -8 -6 -5 -6 6 -1 11 2 17 5
13 3 -3 4 -12 1 -19z m1192 13 c7 -5 12 -14 9 -21 -2 -7 -10 -4 -22 9 -19 21
-12 28 13 12z m-239 -35 c0 -3 -7 -6 -15 -6 -9 0 -15 9 -15 21 0 18 2 19 15 5
8 -8 15 -17 15 -20z m485 4 l29 -30 -65 0 c-59 0 -68 3 -94 30 l-29 30 65 0
c59 0 68 -3 94 -30z m65 14 c0 -14 -3 -14 -15 -4 -8 7 -15 14 -15 16 0 2 7 4
15 4 8 0 15 -7 15 -16z m-2458 -14 l22 -20 -36 0 c-27 0 -37 5 -41 20 -4 15 0
20 14 20 11 0 29 -9 41 -20z m1778 5 c11 -13 5 -15 -44 -15 -31 0 -56 2 -56 5
0 5 56 22 76 24 6 1 17 -6 24 -14z m-440 -42 c0 -1 -9 -3 -20 -3 -15 0 -20 7
-20 27 l0 26 20 -23 c11 -13 20 -25 20 -27z m1317 32 c12 -9 31 -29 43 -45 19
-27 19 -29 3 -23 -15 5 -77 48 -107 75 -18 15 39 8 61 -7z m-2450 -21 c28 -25
28 -25 3 -18 -35 10 -66 44 -41 44 6 0 23 -12 38 -26z m2348 1 l30 -26 -35 7
c-33 6 -49 18 -50 37 0 15 26 6 55 -18z m-330 5 c3 -5 1 -10 -4 -10 -6 0 -11
5 -11 10 0 6 2 10 4 10 3 0 8 -4 11 -10z m525 -11 c0 -6 -4 -7 -10 -4 -5 3
-10 11 -10 16 0 6 5 7 10 4 6 -3 10 -11 10 -16z m576 -56 c-3 -42 -6 -100 -6
-130 0 -52 -1 -53 -18 -36 -51 50 -77 113 -52 128 6 3 10 24 10 45 0 57 8 70
43 70 l30 0 -7 -77z m295 -3 c-14 -107 -30 -115 -87 -45 -24 29 -44 58 -44 63
0 8 131 63 137 57 2 -1 -1 -35 -6 -75z m-2746 60 c3 -5 1 -10 -4 -10 -6 0 -11
5 -11 10 0 6 2 10 4 10 3 0 8 -4 11 -10z m2915 -50 l105 -60 -117 0 -118 0 0
38 c0 42 9 82 19 82 3 -1 53 -27 111 -60z m-3475 39 c11 -17 -1 -21 -15 -4 -8
9 -8 15 -2 15 6 0 14 -5 17 -11z m2635 7 c0 -9 -39 -13 -51 -5 -10 6 -4 9 19
9 17 0 32 -2 32 -4z m981 -22 c11 -6 18 -44 9 -44 -5 0 -15 7 -24 15 -8 9 -19
16 -23 16 -4 1 -19 7 -33 15 -24 14 -23 14 20 8 25 -3 48 -8 51 -10z m-2413
-100 l-3 -37 -34 49 c-19 27 -40 52 -45 56 -17 11 5 26 44 30 33 3 35 1 38
-29 2 -18 2 -49 0 -69z m536 6 c95 -95 98 -100 70 -100 -24 0 -47 18 -128 100
-91 93 -96 100 -69 100 22 0 48 -21 127 -100z m-1997 78 c1 -7 5 -34 11 -60 5
-27 9 -48 8 -48 -1 0 -28 27 -61 60 l-59 60 50 0 c34 0 51 -4 51 -12z m507
-66 c20 -29 34 -58 30 -63 -3 -6 -26 20 -50 57 -67 107 -54 111 20 6z m197 65
c-1 -4 -1 -17 -2 -29 0 -22 -1 -22 -9 -3 -12 28 -12 47 1 43 6 -2 10 -7 10
-11z m1059 -53 c0 -36 -3 -63 -8 -60 -4 2 -22 24 -40 49 l-32 45 33 16 c17 8
35 16 40 16 4 0 7 -30 7 -66z m333 46 c5 -4 7 -30 5 -59 l-3 -52 -65 66 -65
67 60 -7 c33 -4 64 -11 68 -15z m-2690 -10 c3 -11 3 -20 1 -20 -2 0 -8 9 -14
20 -6 11 -7 20 -2 20 6 0 12 -9 15 -20z m764 -54 c34 -33 59 -64 57 -68 -5 -8
-54 31 -54 43 0 4 -21 29 -47 54 -27 26 -41 43 -33 39 8 -4 43 -35 77 -68z
m1211 -18 c9 -16 20 -28 24 -28 4 0 8 -6 8 -14 0 -8 7 -16 15 -20 27 -10 16
-23 -16 -18 -23 3 -45 22 -94 81 l-63 76 26 6 c29 5 65 -25 100 -83z m910 17
c74 -71 76 -75 48 -75 -22 0 -44 15 -97 68 -38 37 -69 70 -69 75 0 4 9 7 21 7
12 0 52 -31 97 -75z m101 43 c-1 -68 -10 -71 -63 -17 l-49 49 57 0 56 0 -1
-32z m-1518 -21 c32 -51 41 -75 31 -81 -12 -7 -26 5 -60 56 -36 53 -40 68 -14
68 9 0 28 -19 43 -43z m-911 -70 c0 -5 -22 13 -50 41 -27 28 -50 54 -50 57 0
4 23 -15 50 -41 28 -26 50 -52 50 -57z m2655 76 c17 -7 46 -27 65 -43 l35 -29
-41 -1 c-32 0 -52 9 -102 46 -34 25 -62 47 -62 49 0 8 77 -8 105 -22z m-2375
2 c6 -8 10 -21 8 -29 -2 -11 -11 -7 -32 15 -27 26 -27 29 -9 29 11 0 26 -7 33
-15z m248 -120 c-2 -1 -22 -11 -45 -23 l-43 -22 0 93 0 92 45 -69 c25 -38 44
-70 43 -71z m1043 90 c-9 -30 -9 -30 -10 10 -1 25 2 36 9 29 6 -6 6 -21 1 -39z
m171 -50 c27 -29 41 -62 16 -37 -7 7 -20 12 -29 12 -18 0 -79 75 -79 96 0 26
26 20 45 -10 11 -17 32 -44 47 -61z m268 -58 c-3 -3 -38 -7 -77 -9 l-73 -4 0
86 0 85 77 -77 c42 -43 75 -79 73 -81z m535 104 l64 -48 -65 -7 c-36 -4 -68
-5 -72 -2 -7 4 -3 106 4 106 3 0 34 -22 69 -49z m1461 34 c19 -14 19 -14 -2
-15 -12 0 -24 7 -28 15 -7 19 5 19 30 0z m-3627 -62 c-1 -66 -1 -67 -14 -37
-11 24 -12 39 -3 68 6 20 13 36 15 36 2 0 3 -30 2 -67z m760 43 c9 -10 8 -16
-4 -26 -13 -11 -15 -8 -15 14 0 30 3 32 19 12z m-947 -97 c-4 -3 -19 -9 -34
-13 -25 -6 -27 -3 -33 37 -3 23 -9 51 -12 62 -3 13 12 1 41 -30 25 -27 43 -52
38 -56z m1128 43 c11 -12 20 -24 20 -26 0 -4 -70 10 -75 16 -1 1 0 18 3 37 4
32 6 33 19 15 7 -10 23 -29 33 -42z m967 -37 c-1 -1 -23 -5 -49 -8 l-48 -7 0
57 0 57 50 -49 c27 -27 49 -50 47 -50z m570 89 c-3 -3 -12 -4 -19 -1 -8 3 -5
6 6 6 11 1 17 -2 13 -5z m83 -19 c0 -17 -30 -34 -48 -28 -10 4 -8 11 9 29 23
24 39 24 39 -1z m550 -47 c8 -13 4 -20 -22 -32 -17 -9 -33 -16 -35 -16 -1 0
-3 28 -3 63 l0 62 25 -30 c14 -16 30 -38 35 -47z m-2710 15 c0 -50 -6 -54 -14
-10 -5 26 1 57 10 57 2 0 4 -21 4 -47z m2571 11 c-9 -28 -9 -29 -10 -3 -1 14
2 29 6 32 11 12 13 2 4 -29z m-2694 -26 c-3 -7 -5 -2 -5 12 0 14 2 19 5 13 2
-7 2 -19 0 -25z m213 -10 c0 -5 -7 -8 -15 -8 -10 0 -15 10 -15 27 0 26 1 26
15 7 8 -10 15 -22 15 -26z m315 22 c3 -5 -1 -10 -10 -10 -9 0 -13 5 -10 10 3
6 8 10 10 10 2 0 7 -4 10 -10z m2570 -14 c-33 -13 -70 -26 -83 -30 -23 -8 -23
-8 -7 23 15 30 18 31 83 31 l67 -1 -60 -23z m-3817 -17 c17 -8 32 -17 32 -21
0 -13 -34 -9 -55 6 -11 7 -33 16 -48 20 -15 4 -25 11 -22 16 5 9 32 3 93 -21z
m3216 10 c-6 -11 -24 -2 -24 11 0 5 7 7 15 4 8 -4 12 -10 9 -15z m-1944 -61
l0 -32 -30 29 c-16 16 -30 30 -30 32 0 2 14 3 30 3 27 0 30 -3 30 -32z m507
-21 c17 -23 30 -43 28 -45 -12 -12 -43 15 -62 53 -28 54 -10 50 34 -8z m933
49 c0 -2 -27 -13 -59 -24 -54 -18 -61 -19 -81 -5 -17 12 -19 17 -9 24 14 9
149 13 149 5z m-240 -16 c0 -5 -4 -10 -10 -10 -5 0 -10 5 -10 10 0 6 5 10 10
10 6 0 10 -4 10 -10z m974 1 c3 -5 -1 -14 -8 -20 -12 -10 -13 -8 -9 8 6 23 9
25 17 12z m-3050 -17 c3 -8 2 -12 -4 -9 -6 3 -10 10 -10 16 0 14 7 11 14 -7z
m588 -19 c22 -44 12 -44 -32 0 -33 34 -34 35 -10 35 18 0 30 -10 42 -35z m108
31 c0 -3 -4 -8 -10 -11 -5 -3 -10 -1 -10 4 0 6 5 11 10 11 6 0 10 -2 10 -4z
m358 -16 c17 -11 32 -24 32 -29 0 -6 10 -19 22 -31 12 -11 19 -22 16 -25 -5
-5 -128 92 -128 101 0 10 28 2 58 -16z m257 -28 c-9 -9 -25 11 -25 31 1 21 1
21 15 -3 7 -14 12 -27 10 -28z m709 19 l27 -28 -47 -7 c-86 -11 -108 -8 -121
19 -12 28 -7 31 67 38 19 2 38 5 41 5 3 1 18 -11 33 -27z m-1004 -58 c0 -2
-12 -1 -27 3 -32 7 -53 30 -53 57 0 15 7 12 40 -19 22 -21 40 -40 40 -41z
m1376 62 c17 -13 14 -14 -36 -14 -55 1 -55 1 -25 14 38 18 37 18 61 0z m-2841
-4 c38 -8 37 -9 -23 -10 -40 -1 -61 3 -57 9 7 12 25 12 80 1z m1613 -32 c2
-13 2 -22 0 -19 -1 3 -14 18 -28 33 l-24 28 24 -9 c15 -6 26 -19 28 -33z m293
23 c-7 -2 -18 1 -23 6 -8 8 -4 9 13 5 13 -4 18 -8 10 -11z m349 2 c0 -14 -3
-14 -15 -4 -8 7 -15 14 -15 16 0 2 7 4 15 4 8 0 15 -7 15 -16z m-1030 -24 c11
-7 2 -10 -34 -10 -48 0 -49 0 -31 20 18 19 24 19 65 -10z m972 1 l26 -29 -45
-6 c-97 -13 -127 -8 -151 23 l-22 30 53 4 c28 2 66 4 83 5 23 2 37 -6 56 -27z
m393 19 c3 -5 1 -10 -4 -10 -6 0 -11 5 -11 10 0 6 2 10 4 10 3 0 8 -4 11 -10z
m-1722 -6 c8 -8 -24 -64 -35 -64 -5 0 -7 12 -4 28 2 15 5 30 5 35 1 9 25 9 34
1z m107 -19 c10 -12 10 -15 -4 -15 -9 0 -16 7 -16 15 0 8 2 15 4 15 2 0 9 -7
16 -15z m-612 -37 c-7 -12 -14 -25 -16 -27 -1 -3 -11 5 -23 17 -21 23 -18 26
26 35 27 5 28 3 13 -25z m2492 15 c-1 -27 -17 -31 -55 -13 l-40 18 48 1 c26 1
47 -2 47 -6z m800 3 c0 -1 -5 -18 -11 -36 l-12 -33 -18 24 c-28 36 -28 37 34
48 4 0 7 -1 7 -3z m-2354 -31 c17 -13 14 -14 -42 -15 -38 0 -67 5 -80 15 -17
13 -14 14 42 15 38 0 67 -5 80 -15z m1184 11 c0 -3 -12 -37 -26 -76 l-27 -71
-33 65 c-19 36 -34 68 -34 70 0 5 44 12 93 14 15 1 27 0 27 -2z m-1750 -47
c-37 -23 -40 -23 -40 -5 0 23 41 48 57 34 11 -9 8 -15 -17 -29z m-260 11 c0
-7 -70 -40 -85 -40 -17 0 -2 17 31 36 38 21 54 22 54 4z m548 13 c-10 -2 -28
-2 -40 0 -13 2 -5 4 17 4 22 1 32 -1 23 -4z m461 -9 c2 -2 -10 -4 -27 -4 -17
0 -34 4 -37 10 -5 9 53 3 64 -6z m871 -54 c19 -38 31 -72 28 -75 -5 -5 -46 69
-76 138 -2 4 0 7 5 7 4 0 24 -32 43 -70z m313 63 c-7 -2 -19 -2 -25 0 -7 3 -2
5 12 5 14 0 19 -2 13 -5z m-425 -53 c-3 -28 -7 -53 -10 -56 -9 -9 -62 20 -102
56 l-38 35 33 6 c19 4 54 7 78 8 l44 1 -5 -50z m-1643 22 c-9 -9 -35 -11 -35
-3 0 14 12 20 26 14 8 -3 12 -8 9 -11z m1456 -9 c13 -15 12 -15 -6 -6 -11 6
-27 13 -35 16 -10 4 -8 6 6 6 12 1 28 -6 35 -16z m1067 -7 c3 -15 1 -16 -17
-5 -11 7 -17 17 -14 22 8 13 28 2 31 -17z m-3155 7 c-7 -2 -21 -2 -30 0 -10 3
-4 5 12 5 17 0 24 -2 18 -5z m2552 -80 c-24 -36 -27 -24 -7 37 16 53 17 54 20
22 2 -19 -4 -44 -13 -59z m258 70 c-7 -2 -21 -2 -30 0 -10 3 -4 5 12 5 17 0
24 -2 18 -5z m-1443 -23 c0 -20 -1 -20 -25 -4 -14 9 -25 18 -25 20 0 2 11 4
25 4 18 0 25 -5 25 -20z m243 13 c-7 -2 -19 -2 -25 0 -7 3 -2 5 12 5 14 0 19
-2 13 -5z m1107 -15 c10 -3 1 -11 -24 -22 -22 -9 -41 -15 -43 -13 -2 3 1 16 7
31 8 21 13 25 27 18 10 -5 25 -12 33 -14z m-2205 -20 c-9 -43 -10 -43 -35 -20
l-22 20 29 16 c15 8 29 15 31 16 2 0 0 -15 -3 -32z m1837 -31 c7 -15 6 -18 -9
-15 -13 2 -19 14 -20 43 -2 37 -2 38 8 15 6 -14 15 -33 21 -43z m-862 38 c11
-13 8 -15 -14 -15 -16 0 -26 5 -26 15 0 8 6 15 14 15 7 0 19 -7 26 -15z m-300
-5 c12 -8 9 -10 -13 -10 -16 0 -26 4 -22 10 8 12 16 12 35 0z m-1195 -37 c-89
-34 -95 -34 -95 -7 0 23 2 24 68 23 l67 0 -40 -16z m2201 -14 c3 -6 -5 -3 -20
6 -14 10 -26 19 -26 22 0 7 39 -17 46 -28z m-2340 -6 c-10 -10 -19 5 -10 18 6
11 8 11 12 0 2 -7 1 -15 -2 -18z m1801 1 c-3 -3 -12 -4 -19 -1 -8 3 -5 6 6 6
11 1 17 -2 13 -5z m1203 -28 c-8 -7 -28 -16 -45 -20 l-30 -6 35 20 c41 23 60
26 40 6z m-1325 -36 c19 -8 19 -9 -2 -9 -12 -1 -25 4 -28 9 -7 12 2 12 30 0z
m-1726 -52 c-12 -18 -24 -35 -26 -37 -2 -2 -3 12 -3 32 0 33 3 37 26 37 l25 0
-22 -32z m3596 -38 l-14 -45 0 36 c-1 19 4 40 11 47 18 18 18 10 3 -38z
m-1821 15 c-9 -14 -17 -24 -18 -23 -1 2 -10 13 -20 26 l-19 22 37 0 36 0 -16
-25z m1205 -17 c-12 -18 -24 -35 -26 -37 -4 -6 -43 30 -43 40 0 8 82 39 89 33
2 -1 -7 -18 -20 -36z m-1659 7 c0 -22 -2 -24 -14 -13 -10 9 -11 17 -4 26 15
17 18 15 18 -13z m-944 -10 c-16 -14 -36 -25 -45 -24 -13 0 -13 2 -1 6 8 3 23
14 34 25 11 10 25 18 30 18 6 0 -2 -11 -18 -25z m1254 -8 c0 -20 -1 -20 -16
-5 -9 9 -13 21 -9 27 10 16 25 3 25 -22z m-538 -35 c26 -20 46 -37 44 -39 -4
-4 -63 15 -93 30 -15 6 -23 19 -23 34 0 28 3 27 72 -25z m145 9 c22 -29 14
-35 -14 -10 -16 13 -32 28 -38 32 -6 6 0 6 15 2 14 -4 30 -15 37 -24z m613 15
c0 -8 -7 -16 -15 -20 -12 -4 -13 -2 -2 14 14 24 17 25 17 6z m-476 -12 c3 -8
2 -12 -4 -9 -6 3 -10 10 -10 16 0 14 7 11 14 -7z m1496 -9 c11 -13 8 -15 -14
-15 -23 0 -25 2 -14 15 16 18 13 18 28 0z m-903 -67 c-42 -12 -45 -9 -29 27
l16 34 18 -27 c17 -27 17 -27 -5 -34z m-1587 22 c-7 -13 -21 -20 -38 -20 l-27
1 24 19 c32 27 55 27 41 0z m148 3 c2 -9 -7 -13 -28 -13 -26 0 -29 2 -18 15
15 17 39 16 46 -2z m237 -3 c16 -18 16 -20 2 -20 -9 0 -21 9 -27 20 -6 11 -7
20 -2 20 5 0 17 -9 27 -20z m1290 10 c3 -5 -1 -10 -9 -10 -9 0 -16 5 -16 10 0
6 4 10 9 10 6 0 13 -4 16 -10z m-665 -24 c0 -3 -4 -8 -10 -11 -5 -3 -10 -1
-10 4 0 6 5 11 10 11 6 0 10 -2 10 -4z m1055 -66 c4 -6 -5 -10 -20 -10 -15 0
-24 4 -20 10 3 6 12 10 20 10 8 0 17 -4 20 -10z m-265 -19 c0 -15 -11 -22 -52
-30 -63 -14 -80 -2 -42 28 35 28 94 29 94 2z m70 15 c0 -2 -7 -6 -15 -10 -8
-3 -15 -1 -15 4 0 6 7 10 15 10 8 0 15 -2 15 -4z m-465 -16 c4 -6 -12 -10 -40
-10 -28 0 -44 4 -40 10 3 6 21 10 40 10 19 0 37 -4 40 -10z m231 -5 c-11 -8
-29 -15 -40 -14 -15 0 -11 4 14 14 45 17 49 17 26 0z m-546 -5 c0 -5 -7 -7
-15 -4 -8 4 -15 8 -15 10 0 2 7 4 15 4 8 0 15 -4 15 -10z m98 -2 c8 -8 9 -15
1 -25 -17 -20 -35 -16 -47 12 -11 23 -9 25 11 25 13 0 28 -5 35 -12z m242 -45
c0 -5 -13 -53 -29 -108 l-28 -100 -12 55 c-7 30 -19 74 -27 98 -8 23 -14 47
-14 52 0 6 25 10 55 10 30 0 55 -3 55 -7z m583 -116 c-21 -59 -40 -107 -44
-107 -3 0 -27 44 -51 98 l-46 97 87 10 c47 6 87 10 89 9 1 0 -14 -49 -35 -107z
m-933 -57 c0 -6 4 -10 9 -10 4 0 21 -19 36 -41 29 -45 24 -63 -16 -57 -19 2
-34 23 -71 98 -26 52 -47 108 -47 124 -1 27 3 23 44 -37 25 -37 45 -72 45 -77z
m153 100 c-7 -27 -11 -30 -21 -18 -9 11 -8 19 4 37 21 29 27 21 17 -19z m-77
-39 c3 -14 8 -33 10 -41 7 -19 -3 -9 -50 58 l-38 53 36 -22 c22 -13 38 -31 42
-48z m373 36 c0 -21 -1 -21 -9 -2 -12 28 -12 37 0 30 6 -3 10 -16 9 -28z m271
-64 l0 -97 -69 75 c-37 41 -69 79 -70 84 -1 6 22 15 51 21 94 21 88 26 88 -83z
m-320 34 c0 -31 -8 -52 -32 -82 -17 -22 -29 -33 -26 -25 3 8 14 47 24 87 20
78 34 86 34 20z m-181 -52 c20 -69 20 -70 1 -45 -11 14 -24 30 -28 35 -4 6 -6
30 -4 55 3 25 6 41 8 35 1 -5 12 -41 23 -80z m365 -35 l78 -80 -97 0 c-96 0
-97 0 -92 23 3 12 11 48 17 80 6 31 12 57 14 57 1 0 37 -36 80 -80z m256 -75
c0 -3 -18 -5 -40 -5 l-40 0 0 83 1 82 39 -78 c22 -42 40 -80 40 -82z m153 42
c-6 -67 -12 -75 -47 -61 -13 5 -10 16 17 70 17 35 32 62 34 61 1 -2 0 -33 -4
-70z m-1066 -69 c-18 -3 -32 -6 -33 -5 -1 1 1 31 4 67 l5 65 28 -60 27 -60
-31 -7z m267 55 c19 -23 19 -23 -2 -23 -17 0 -22 6 -22 27 0 14 1 24 3 22 1
-2 11 -14 21 -26z m226 -4 c0 -14 -7 -19 -25 -19 -25 0 -25 1 -9 25 18 27 34
25 34 -6z m-63 -65 c-3 -3 -12 -4 -19 -1 -8 3 -5 6 6 6 11 1 17 -2 13 -5z
m-237 -142 c0 -93 -1 -96 -17 -73 -9 13 -34 40 -55 59 -34 30 -39 40 -36 71 3
35 5 36 48 41 25 3 48 4 53 2 4 -2 7 -47 7 -100z m109 78 c-6 -16 -15 -30 -20
-30 -5 0 -15 14 -24 30 l-16 30 35 0 c34 0 35 0 25 -30z m171 25 c0 -2 -5 -16
-12 -30 l-12 -26 -13 23 c-18 33 -16 38 12 38 14 0 25 -2 25 -5z m320 -96 l0
-101 -32 34 c-18 19 -62 64 -98 101 l-64 67 97 0 97 0 0 -101z m150 24 c0 -42
-2 -74 -4 -72 -2 2 -20 37 -40 77 l-36 72 40 0 40 0 0 -77z m104 59 c2 -4 1
-14 -4 -21 -6 -11 -10 -9 -19 8 -10 17 -9 21 3 21 8 0 17 -4 20 -8z m-642
-136 l-21 -41 0 85 1 85 20 -44 20 -44 -20 -41z m233 14 l100 -100 -103 0
-102 0 0 100 c0 55 1 100 3 100 1 0 47 -45 102 -100z m575 21 c0 -6 -96 -71
-105 -71 -3 0 -5 34 -5 75 l0 75 55 -36 c30 -20 55 -40 55 -43z m-1294 -58
c-2 -3 -24 10 -49 28 l-44 34 46 32 46 33 3 -61 c2 -34 1 -63 -2 -66z m424 50
l-1 -78 -20 37 c-18 35 -18 40 -3 78 9 22 18 40 20 40 2 0 4 -35 4 -77z m656
-17 c-15 -31 -16 -31 -15 34 l0 65 15 -34 c13 -31 13 -38 0 -65z m-506 32 c-1
-26 -3 -30 -10 -16 -6 9 -7 23 -4 32 9 25 14 19 14 -16z m420 -120 c0 -5 -18
-8 -40 -8 l-40 0 0 83 0 82 40 -75 c21 -41 39 -78 40 -82z m-943 105 c-3 -10
-5 -4 -5 12 0 17 2 24 5 18 2 -7 2 -21 0 -30z m273 -21 c-7 -13 -9 -8 -9 23 0
35 1 37 10 17 6 -15 5 -30 -1 -40z m213 -80 c-33 -5 -35 -1 -21 36 l12 32 17
-32 c17 -33 17 -33 -8 -36z m596 17 c1 -4 -8 -9 -19 -12 -23 -6 -24 -6 -8 28
11 24 13 25 19 8 4 -10 8 -21 8 -24z m-1039 10 c0 -5 -7 -9 -15 -9 -9 0 -12 6
-9 15 6 15 24 11 24 -6z m283 -9 c4 -16 0 -20 -19 -20 -21 0 -23 2 -12 25 12
27 23 26 31 -5z m-189 1 c17 -19 17 -19 -3 -14 -12 3 -21 12 -21 19 0 18 4 18
24 -5z m203 -67 c-3 -3 -12 -4 -19 -1 -8 3 -5 6 6 6 11 1 17 -2 13 -5z m130 0
c-3 -3 -12 -4 -19 -1 -8 3 -5 6 6 6 11 1 17 -2 13 -5z m565 -44 c-13 -23 -18
-26 -21 -13 -2 9 5 23 15 30 25 18 25 17 6 -17z m-810 -3 c20 -31 5 -36 -34
-11 -58 36 -59 38 -13 29 22 -4 43 -12 47 -18z m748 -7 c0 -11 -2 -20 -3 -20
-2 0 -12 9 -22 20 -18 19 -17 20 3 20 15 0 22 -6 22 -20z m-541 -4 c9 -10 8
-16 -4 -26 -13 -11 -15 -8 -15 14 0 30 3 32 19 12z m-64 -44 c-5 -14 -8 -14
-15 -2 -5 8 -4 22 3 34 10 19 11 20 15 3 2 -10 1 -26 -3 -35z m285 -3 c10 -6
1 -8 -27 -9 -34 0 -41 3 -37 15 6 16 30 13 64 -6z m-525 1 c3 -5 1 -10 -4 -10
-6 0 -11 5 -11 10 0 6 2 10 4 10 3 0 8 -4 11 -10z m85 -120 c-6 -11 -16 -18
-21 -14 -6 3 -3 12 8 20 24 18 26 17 13 -6z m-64 -107 c-32 -59 -36 -60 -36
-15 0 38 2 42 25 42 25 0 25 -1 11 -27z"/>
</g>
</svg>
