<svg
  version="1.1"
  xml:space="preserve"
  width="32"
  height="32"
  viewBox="0 0 32 32"
  xmlns="http://www.w3.org/2000/svg"
>
 <defs>
  <clipPath clipPathUnits="userSpaceOnUse"
                >
   <path d="M 0,24 H 24 V 0 H 0 Z"></path>
  </clipPath>
 </defs>
 <g transform="matrix(1.3333333,0,0,-1.3333333,0,32)">
  <g>
   <g clip-path="url(#clipPath23)">
    <g transform="translate(2.374,17.8677)">
     <path
                      d="m 0,0 7.458,3.558 c 1.32,0.793 3.016,0.793 4.336,0 L 19.252,0 c 1.832,-1.101 1.832,-3.595 0,-4.695 l -7.458,-3.558 c -1.32,-0.793 -3.016,-0.793 -4.336,0 L 0,-4.695 c -1.832,1.1 -1.832,3.594 0,4.695 z"
                      style="fill:none;stroke-width:2;stroke-linecap:round;stroke-linejoin:round;stroke-miterlimit:10;stroke-dasharray:none;stroke-opacity:1"
                    ></path>
    </g>
    <g transform="translate(5,11.6113)">
     <path
                      d="M 0,0 V -5.227 C 0,-6.978 1.13,-8.542 2.807,-9.047 3.865,-9.366 5.249,-9.611 7,-9.611 c 1.751,0 3.135,0.245 4.193,0.564 C 12.87,-8.542 14,-6.978 14,-5.227 V 0"
                      style="fill:none;stroke-width:2;stroke-linecap:round;stroke-linejoin:round;stroke-miterlimit:10;stroke-dasharray:none;stroke-opacity:1"
                    ></path>
    </g>
    <g transform="translate(23,16)">
     <path
                      d="M 0,0 V -12"
                      style="fill:none;stroke-width:2;stroke-linecap:round;stroke-linejoin:round;stroke-miterlimit:10;stroke-dasharray:none;stroke-opacity:1"
                    ></path>
    </g>
   </g>
  </g>
 </g>
</svg>
